solid Blind Clip
facet normal 1.0 -5.806605777328226e-18 4.081702296416017e-17
  outer loop
    vertex 0.0 28.651199999999996 0.0
    vertex -1.0574874309554614e-15 -1.7018000000000013 21.59
    vertex 0.0 -1.7018000000000013 0.0
  endloop
endfacet
facet normal 1.0 -5.806605777328226e-18 4.081702296416017e-17
  outer loop
    vertex -1.0574874309554614e-15 -1.7018000000000013 21.59
    vertex 0.0 28.651199999999996 0.0
    vertex -7.049916206369744e-16 28.651199999999996 21.59
  endloop
endfacet
facet normal -0.0 1.0 -0.0
  outer loop
    vertex 0.0 -1.7018000000000013 76.19999999999999
    vertex 3.8100000000000005 -1.7018000000000013 54.61000000000001
    vertex -7.049916206369744e-16 -1.7018000000000013 54.60999999999999
  endloop
endfacet
facet normal -0.0 1.0 -0.0
  outer loop
    vertex 3.8100000000000005 -1.7018000000000013 54.61000000000001
    vertex 0.0 -1.7018000000000013 76.19999999999999
    vertex 3.8100000000000005 -1.7018000000000013 76.19999999999999
  endloop
endfacet
facet normal 0.0 -1.0 0.0
  outer loop
    vertex 3.8100000000000005 -4.2418000000000005 21.59000000000001
    vertex -2.540000000000001 -4.2418000000000005 0.0
    vertex 3.8100000000000005 -4.2418000000000005 0.0
  endloop
endfacet
facet normal 0.0 -1.0 0.0
  outer loop
    vertex -2.540000000000001 -4.2418000000000005 0.0
    vertex 3.8100000000000005 -4.2418000000000005 21.59000000000001
    vertex -2.5400000000000014 -4.2418000000000005 21.59000000000001
  endloop
endfacet
facet normal 4.833995368209991e-16 -3.454156312976112e-16 -1.0
  outer loop
    vertex -2.539999999999999 32.4612 54.60999999999999
    vertex -1.762479051592436e-16 28.651199999999996 54.609999999999985
    vertex -7.049916206369744e-16 -1.7018000000000013 54.60999999999999
  endloop
endfacet
facet normal 4.833995368209991e-16 -3.454156312976112e-16 -1.0
  outer loop
    vertex -1.762479051592436e-16 28.651199999999996 54.609999999999985
    vertex -2.539999999999999 32.4612 54.60999999999999
    vertex 10.668000000000001 32.4612 54.60999999999999
  endloop
endfacet
facet normal 4.833995368209991e-16 -3.454156312976112e-16 -1.0
  outer loop
    vertex -1.762479051592436e-16 28.651199999999996 54.609999999999985
    vertex 10.668000000000001 32.4612 54.60999999999999
    vertex 10.668000000000001 28.651199999999996 54.60999999999999
  endloop
endfacet
facet normal 4.833995368209991e-16 -3.454156312976112e-16 -1.0
  outer loop
    vertex -2.540000000000001 -4.2418000000000005 54.61000000000001
    vertex -7.049916206369744e-16 -1.7018000000000013 54.60999999999999
    vertex 3.8100000000000005 -4.2418000000000005 54.61000000000001
  endloop
endfacet
facet normal 4.833995368209991e-16 -3.454156312976112e-16 -1.0
  outer loop
    vertex -7.049916206369744e-16 -1.7018000000000013 54.60999999999999
    vertex -2.540000000000001 -4.2418000000000005 54.61000000000001
    vertex -2.539999999999999 32.4612 54.60999999999999
  endloop
endfacet
facet normal 4.833995368209991e-16 -3.454156312976112e-16 -1.0
  outer loop
    vertex 3.8100000000000005 -4.2418000000000005 54.61000000000001
    vertex -7.049916206369744e-16 -1.7018000000000013 54.60999999999999
    vertex 3.8100000000000005 -1.7018000000000013 54.61000000000001
  endloop
endfacet
facet normal -1.0 1.9503382489392903e-17 2.0399849787215016e-18
  outer loop
    vertex -2.5400000000000005 32.4612 21.59
    vertex -2.540000000000001 -4.2418000000000005 0.0
    vertex -2.5400000000000014 -4.2418000000000005 21.59000000000001
  endloop
endfacet
facet normal -1.0 1.9503382489392903e-17 2.0399849787215016e-18
  outer loop
    vertex -2.540000000000001 -4.2418000000000005 0.0
    vertex -2.5400000000000005 32.4612 21.59
    vertex -2.54 32.4612 0.0
  endloop
endfacet
facet normal 1.0 -0.0 -0.0
  outer loop
    vertex 3.8100000000000005 -1.7018000000000013 54.61000000000001
    vertex 3.8100000000000005 -4.2418000000000005 76.19999999999999
    vertex 3.8100000000000005 -4.2418000000000005 54.61000000000001
  endloop
endfacet
facet normal 1.0 -0.0 -0.0
  outer loop
    vertex 3.8100000000000005 -4.2418000000000005 76.19999999999999
    vertex 3.8100000000000005 -1.7018000000000013 54.61000000000001
    vertex 3.8100000000000005 -1.7018000000000013 76.19999999999999
  endloop
endfacet
facet normal 0.0 0.0 -1.0
  outer loop
    vertex 26.4668 32.4612 0.0
    vertex 0.0 28.651199999999996 0.0
    vertex -2.54 32.4612 0.0
  endloop
endfacet
facet normal 0.0 0.0 -1.0
  outer loop
    vertex 0.0 28.651199999999996 0.0
    vertex 26.4668 32.4612 0.0
    vertex 23.926799999999997 28.651199999999996 0.0
  endloop
endfacet
facet normal 0.0 0.0 -1.0
  outer loop
    vertex 23.926799999999997 28.651199999999996 0.0
    vertex 26.4668 32.4612 0.0
    vertex 23.926799999999997 23.571199999999994 0.0
  endloop
endfacet
facet normal 0.0 0.0 -1.0
  outer loop
    vertex 23.926799999999997 23.571199999999994 0.0
    vertex 26.4668 32.4612 0.0
    vertex 26.4668 23.571199999999994 0.0
  endloop
endfacet
facet normal 0.0 0.0 -1.0
  outer loop
    vertex -2.540000000000001 -4.2418000000000005 0.0
    vertex 0.0 -1.7018000000000013 0.0
    vertex 3.8100000000000005 -4.2418000000000005 0.0
  endloop
endfacet
facet normal 0.0 0.0 -1.0
  outer loop
    vertex 0.0 -1.7018000000000013 0.0
    vertex -2.540000000000001 -4.2418000000000005 0.0
    vertex -2.54 32.4612 0.0
  endloop
endfacet
facet normal 0.0 0.0 -1.0
  outer loop
    vertex 0.0 -1.7018000000000013 0.0
    vertex -2.54 32.4612 0.0
    vertex 0.0 28.651199999999996 0.0
  endloop
endfacet
facet normal 0.0 0.0 -1.0
  outer loop
    vertex 3.8100000000000005 -4.2418000000000005 0.0
    vertex 0.0 -1.7018000000000013 0.0
    vertex 3.8100000000000005 -1.7018000000000013 0.0
  endloop
endfacet
facet normal 0.0 0.0 1.0
  outer loop
    vertex -2.540000000000001 -4.2418000000000005 76.19999999999999
    vertex 0.0 -1.7018000000000013 76.19999999999999
    vertex -2.54 32.4612 76.19999999999999
  endloop
endfacet
facet normal 0.0 0.0 1.0
  outer loop
    vertex 0.0 -1.7018000000000013 76.19999999999999
    vertex -2.540000000000001 -4.2418000000000005 76.19999999999999
    vertex 3.8100000000000005 -4.2418000000000005 76.19999999999999
  endloop
endfacet
facet normal 0.0 0.0 1.0
  outer loop
    vertex 0.0 -1.7018000000000013 76.19999999999999
    vertex 3.8100000000000005 -4.2418000000000005 76.19999999999999
    vertex 3.8100000000000005 -1.7018000000000013 76.19999999999999
  endloop
endfacet
facet normal 0.0 0.0 1.0
  outer loop
    vertex 26.4668 23.571199999999994 76.19999999999999
    vertex 23.926799999999997 28.651199999999996 76.19999999999999
    vertex 23.926799999999997 23.571199999999994 76.19999999999999
  endloop
endfacet
facet normal 0.0 0.0 1.0
  outer loop
    vertex -2.54 32.4612 76.19999999999999
    vertex 0.0 28.651199999999996 76.19999999999999
    vertex 26.4668 32.4612 76.19999999999999
  endloop
endfacet
facet normal 0.0 0.0 1.0
  outer loop
    vertex 0.0 28.651199999999996 76.19999999999999
    vertex -2.54 32.4612 76.19999999999999
    vertex 0.0 -1.7018000000000013 76.19999999999999
  endloop
endfacet
facet normal 0.0 0.0 1.0
  outer loop
    vertex 26.4668 32.4612 76.19999999999999
    vertex 0.0 28.651199999999996 76.19999999999999
    vertex 23.926799999999997 28.651199999999996 76.19999999999999
  endloop
endfacet
facet normal 0.0 0.0 1.0
  outer loop
    vertex 26.4668 32.4612 76.19999999999999
    vertex 23.926799999999997 28.651199999999996 76.19999999999999
    vertex 26.4668 23.571199999999994 76.19999999999999
  endloop
endfacet
facet normal -0.0 1.0 -0.0
  outer loop
    vertex -1.0574874309554614e-15 -1.7018000000000013 21.59
    vertex 3.8100000000000005 -1.7018000000000013 0.0
    vertex 0.0 -1.7018000000000013 0.0
  endloop
endfacet
facet normal -0.0 1.0 -0.0
  outer loop
    vertex 3.8100000000000005 -1.7018000000000013 0.0
    vertex -1.0574874309554614e-15 -1.7018000000000013 21.59
    vertex 3.8100000000000005 -1.7018000000000013 21.59000000000001
  endloop
endfacet
facet normal 1.0 -0.0 -0.0
  outer loop
    vertex 3.8100000000000005 -1.7018000000000013 0.0
    vertex 3.8100000000000005 -4.2418000000000005 21.59000000000001
    vertex 3.8100000000000005 -4.2418000000000005 0.0
  endloop
endfacet
facet normal 1.0 -0.0 -0.0
  outer loop
    vertex 3.8100000000000005 -4.2418000000000005 21.59000000000001
    vertex 3.8100000000000005 -1.7018000000000013 0.0
    vertex 3.8100000000000005 -1.7018000000000013 21.59000000000001
  endloop
endfacet
facet normal 0.0 -1.0 0.0
  outer loop
    vertex 3.8100000000000005 -4.2418000000000005 76.19999999999999
    vertex -2.540000000000001 -4.2418000000000005 54.61000000000001
    vertex 3.8100000000000005 -4.2418000000000005 54.61000000000001
  endloop
endfacet
facet normal 0.0 -1.0 0.0
  outer loop
    vertex -2.540000000000001 -4.2418000000000005 54.61000000000001
    vertex 3.8100000000000005 -4.2418000000000005 76.19999999999999
    vertex -2.540000000000001 -4.2418000000000005 76.19999999999999
  endloop
endfacet
facet normal 1.0 0.0 0.0
  outer loop
    vertex 26.4668 32.4612 0.0
    vertex 26.4668 23.571199999999994 76.19999999999999
    vertex 26.4668 23.571199999999994 0.0
  endloop
endfacet
facet normal 1.0 0.0 0.0
  outer loop
    vertex 26.4668 23.571199999999994 76.19999999999999
    vertex 26.4668 32.4612 0.0
    vertex 26.4668 32.4612 76.19999999999999
  endloop
endfacet
facet normal -0.0 -1.0 -0.0
  outer loop
    vertex 26.4668 23.571199999999994 76.19999999999999
    vertex 23.926799999999997 23.571199999999994 0.0
    vertex 26.4668 23.571199999999994 0.0
  endloop
endfacet
facet normal -0.0 -1.0 -0.0
  outer loop
    vertex 23.926799999999997 23.571199999999994 0.0
    vertex 26.4668 23.571199999999994 76.19999999999999
    vertex 23.926799999999997 23.571199999999994 76.19999999999999
  endloop
endfacet
facet normal -1.0 0.0 0.0
  outer loop
    vertex 23.926799999999997 28.651199999999996 76.19999999999999
    vertex 23.926799999999997 23.571199999999994 0.0
    vertex 23.926799999999997 23.571199999999994 76.19999999999999
  endloop
endfacet
facet normal -1.0 0.0 0.0
  outer loop
    vertex 23.926799999999997 23.571199999999994 0.0
    vertex 23.926799999999997 28.651199999999996 76.19999999999999
    vertex 23.926799999999997 28.651199999999996 0.0
  endloop
endfacet
facet normal 0.0 -1.0 0.0
  outer loop
    vertex 23.926799999999997 28.651199999999996 0.0
    vertex 10.668000000000001 28.651199999999996 21.59
    vertex 0.0 28.651199999999996 0.0
  endloop
endfacet
facet normal 0.0 -1.0 0.0
  outer loop
    vertex 10.668000000000001 28.651199999999996 21.59
    vertex 23.926799999999997 28.651199999999996 0.0
    vertex 23.926799999999997 28.651199999999996 76.19999999999999
  endloop
endfacet
facet normal 0.0 -1.0 0.0
  outer loop
    vertex 0.0 28.651199999999996 0.0
    vertex 10.668000000000001 28.651199999999996 21.59
    vertex -7.049916206369744e-16 28.651199999999996 21.59
  endloop
endfacet
facet normal 0.0 -1.0 0.0
  outer loop
    vertex 10.668000000000001 28.651199999999996 21.59
    vertex 23.926799999999997 28.651199999999996 76.19999999999999
    vertex 10.668000000000001 28.651199999999996 54.60999999999999
  endloop
endfacet
facet normal 0.0 -1.0 0.0
  outer loop
    vertex 10.668000000000001 28.651199999999996 54.60999999999999
    vertex 0.0 28.651199999999996 76.19999999999999
    vertex -1.762479051592436e-16 28.651199999999996 54.609999999999985
  endloop
endfacet
facet normal 0.0 -1.0 0.0
  outer loop
    vertex 0.0 28.651199999999996 76.19999999999999
    vertex 10.668000000000001 28.651199999999996 54.60999999999999
    vertex 23.926799999999997 28.651199999999996 76.19999999999999
  endloop
endfacet
facet normal 1.0 -8.709908665992341e-18 -2.040851148208007e-17
  outer loop
    vertex -1.762479051592436e-16 28.651199999999996 54.609999999999985
    vertex 0.0 -1.7018000000000013 76.19999999999999
    vertex -7.049916206369744e-16 -1.7018000000000013 54.60999999999999
  endloop
endfacet
facet normal 1.0 -8.709908665992341e-18 -2.040851148208007e-17
  outer loop
    vertex 0.0 -1.7018000000000013 76.19999999999999
    vertex -1.762479051592436e-16 28.651199999999996 54.609999999999985
    vertex 0.0 28.651199999999996 76.19999999999999
  endloop
endfacet
facet normal 0.0 1.0 0.0
  outer loop
    vertex -2.54 32.4612 76.19999999999999
    vertex 10.668000000000001 32.4612 54.60999999999999
    vertex -2.539999999999999 32.4612 54.60999999999999
  endloop
endfacet
facet normal 0.0 1.0 0.0
  outer loop
    vertex -2.5400000000000005 32.4612 21.59
    vertex 26.4668 32.4612 0.0
    vertex -2.54 32.4612 0.0
  endloop
endfacet
facet normal 0.0 1.0 0.0
  outer loop
    vertex 26.4668 32.4612 0.0
    vertex -2.5400000000000005 32.4612 21.59
    vertex 10.668000000000001 32.4612 21.59
  endloop
endfacet
facet normal 0.0 1.0 0.0
  outer loop
    vertex 26.4668 32.4612 0.0
    vertex 10.668000000000001 32.4612 21.59
    vertex 26.4668 32.4612 76.19999999999999
  endloop
endfacet
facet normal 0.0 1.0 0.0
  outer loop
    vertex 26.4668 32.4612 76.19999999999999
    vertex 10.668000000000001 32.4612 21.59
    vertex 10.668000000000001 32.4612 54.60999999999999
  endloop
endfacet
facet normal 0.0 1.0 0.0
  outer loop
    vertex 26.4668 32.4612 76.19999999999999
    vertex 10.668000000000001 32.4612 54.60999999999999
    vertex -2.54 32.4612 76.19999999999999
  endloop
endfacet
facet normal -1.0 3.05045322787093e-17 -3.193690842300456e-17
  outer loop
    vertex -2.54 32.4612 76.19999999999999
    vertex -2.540000000000001 -4.2418000000000005 54.61000000000001
    vertex -2.540000000000001 -4.2418000000000005 76.19999999999999
  endloop
endfacet
facet normal -1.0 3.05045322787093e-17 -3.193690842300456e-17
  outer loop
    vertex -2.540000000000001 -4.2418000000000005 54.61000000000001
    vertex -2.54 32.4612 76.19999999999999
    vertex -2.539999999999999 32.4612 54.60999999999999
  endloop
endfacet
facet normal -1.0 -0.0 -0.0
  outer loop
    vertex 10.668000000000001 32.4612 54.60999999999999
    vertex 10.668000000000001 28.651199999999996 21.59
    vertex 10.668000000000001 28.651199999999996 54.60999999999999
  endloop
endfacet
facet normal -1.0 -0.0 -0.0
  outer loop
    vertex 10.668000000000001 28.651199999999996 21.59
    vertex 10.668000000000001 32.4612 54.60999999999999
    vertex 10.668000000000001 32.4612 21.59
  endloop
endfacet
facet normal -4.0014068764999086e-16 2.1787719274617081e-16 1.0
  outer loop
    vertex -2.5400000000000014 -4.2418000000000005 21.59000000000001
    vertex -1.0574874309554614e-15 -1.7018000000000013 21.59
    vertex -2.5400000000000005 32.4612 21.59
  endloop
endfacet
facet normal -4.0014068764999086e-16 2.1787719274617081e-16 1.0
  outer loop
    vertex -1.0574874309554614e-15 -1.7018000000000013 21.59
    vertex -2.5400000000000014 -4.2418000000000005 21.59000000000001
    vertex 3.8100000000000005 -4.2418000000000005 21.59000000000001
  endloop
endfacet
facet normal -4.0014068764999086e-16 2.1787719274617081e-16 1.0
  outer loop
    vertex -1.0574874309554614e-15 -1.7018000000000013 21.59
    vertex 3.8100000000000005 -4.2418000000000005 21.59000000000001
    vertex 3.8100000000000005 -1.7018000000000013 21.59000000000001
  endloop
endfacet
facet normal -4.0014068764999086e-16 2.1787719274617081e-16 1.0
  outer loop
    vertex -2.5400000000000005 32.4612 21.59
    vertex -7.049916206369744e-16 28.651199999999996 21.59
    vertex 10.668000000000001 32.4612 21.59
  endloop
endfacet
facet normal -4.0014068764999086e-16 2.1787719274617081e-16 1.0
  outer loop
    vertex -7.049916206369744e-16 28.651199999999996 21.59
    vertex -2.5400000000000005 32.4612 21.59
    vertex -1.0574874309554614e-15 -1.7018000000000013 21.59
  endloop
endfacet
facet normal -4.0014068764999086e-16 2.1787719274617081e-16 1.0
  outer loop
    vertex 10.668000000000001 32.4612 21.59
    vertex -7.049916206369744e-16 28.651199999999996 21.59
    vertex 10.668000000000001 28.651199999999996 21.59
  endloop
endfacet
endsolid Blind Clip
