solid Camera Battery 2
facet normal 2.775557561562901e-16 -5.5180070806419313e-17 1.0
  outer loop
    vertex 111.47983728934364 6.4095239797193395 2.6415999999999995
    vertex 108.93983728934364 31.961923979719334 2.6416000000000013
    vertex 108.93983728934364 6.4095239797193395 2.6415999999999986
  endloop
endfacet
facet normal 2.775557561562901e-16 -5.5180070806419313e-17 1.0
  outer loop
    vertex 108.93983728934364 31.961923979719334 2.6416000000000013
    vertex 111.47983728934364 6.4095239797193395 2.6415999999999995
    vertex 111.47983728934364 31.961923979719334 2.6415999999999995
  endloop
endfacet
facet normal 0.0 1.0 0.0
  outer loop
    vertex 107.16183728934364 3.615523979719339 8.889999999999999
    vertex 108.93983728934364 3.615523979719339 1.0159999999999945
    vertex 107.16183728934364 3.615523979719339 1.0159999999999945
  endloop
endfacet
facet normal 0.0 1.0 0.0
  outer loop
    vertex 108.93983728934364 3.615523979719339 1.0159999999999945
    vertex 107.16183728934364 3.615523979719339 8.889999999999999
    vertex 108.93983728934364 3.615523979719339 8.889999999999999
  endloop
endfacet
facet normal 0.0 -1.0 0.0
  outer loop
    vertex 111.47983728934364 31.961923979719334 8.889999999999999
    vertex 108.93983728934364 31.961923979719334 2.6416000000000013
    vertex 111.47983728934364 31.961923979719334 2.6415999999999995
  endloop
endfacet
facet normal 0.0 -1.0 0.0
  outer loop
    vertex 108.93983728934364 31.961923979719334 2.6416000000000013
    vertex 111.47983728934364 31.961923979719334 8.889999999999999
    vertex 108.93983728934364 31.961923979719334 8.889999999999999
  endloop
endfacet
facet normal -3.697457925555318e-17 1.5074068025230936e-16 1.0
  outer loop
    vertex 66.77583728934364 2.8535239797193395 8.889999999999999
    vertex 69.36663728934364 3.8695239797193395 8.889999999999995
    vertex 66.77583728934364 5.730388411716648 8.889999999999997
  endloop
endfacet
facet normal -3.697457925555318e-17 1.5074068025230936e-16 1.0
  outer loop
    vertex 69.36663728934364 3.8695239797193395 8.889999999999995
    vertex 66.77583728934364 2.8535239797193395 8.889999999999999
    vertex 111.47983728934364 2.85352397971934 8.889999999999999
  endloop
endfacet
facet normal -3.697457925555318e-17 1.5074068025230936e-16 1.0
  outer loop
    vertex 69.36663728934364 3.8695239797193395 8.889999999999995
    vertex 111.47983728934364 2.85352397971934 8.889999999999999
    vertex 105.38383728934366 3.8695239797193395 8.889999999999997
  endloop
endfacet
facet normal -3.697457925555318e-17 1.5074068025230936e-16 1.0
  outer loop
    vertex 105.38383728934366 3.8695239797193395 8.889999999999997
    vertex 111.47983728934364 2.85352397971934 8.889999999999999
    vertex 107.16183728934364 3.615523979719339 8.889999999999999
  endloop
endfacet
facet normal -3.697457925555318e-17 1.5074068025230936e-16 1.0
  outer loop
    vertex 105.38383728934366 3.8695239797193395 8.889999999999997
    vertex 107.16183728934364 3.615523979719339 8.889999999999999
    vertex 105.38383728934366 6.4095239797193395 8.889999999999997
  endloop
endfacet
facet normal -3.697457925555318e-17 1.5074068025230936e-16 1.0
  outer loop
    vertex 107.16183728934364 3.615523979719339 8.889999999999999
    vertex 111.47983728934364 2.85352397971934 8.889999999999999
    vertex 108.93983728934364 3.615523979719339 8.889999999999999
  endloop
endfacet
facet normal -3.697457925555318e-17 1.5074068025230936e-16 1.0
  outer loop
    vertex 108.93983728934364 3.615523979719339 8.889999999999999
    vertex 111.47983728934364 2.85352397971934 8.889999999999999
    vertex 108.93983728934364 6.4095239797193395 8.889999999999999
  endloop
endfacet
facet normal -3.697457925555318e-17 1.5074068025230936e-16 1.0
  outer loop
    vertex 108.93983728934364 6.4095239797193395 8.889999999999999
    vertex 111.47983728934364 2.85352397971934 8.889999999999999
    vertex 111.47983728934364 6.4095239797193395 8.889999999999999
  endloop
endfacet
facet normal -3.697457925555318e-17 1.5074068025230936e-16 1.0
  outer loop
    vertex 107.16183728934364 6.4095239797193395 8.889999999999999
    vertex 105.38383728934366 6.4095239797193395 8.889999999999997
    vertex 107.16183728934364 3.615523979719339 8.889999999999999
  endloop
endfacet
facet normal -3.697457925555318e-17 1.5074068025230936e-16 1.0
  outer loop
    vertex 69.36663728934364 5.730388411716648 8.889999999999995
    vertex 66.77583728934364 5.730388411716648 8.889999999999997
    vertex 69.36663728934364 3.8695239797193395 8.889999999999995
  endloop
endfacet
facet normal -1.0 -1.2457758758600476e-16 -3.581364595565022e-16
  outer loop
    vertex 105.38383728934366 34.501923979719336 8.889999999999997
    vertex 105.38383728934366 31.961923979719334 2.641599999999998
    vertex 105.38383728934366 31.961923979719334 8.889999999999997
  endloop
endfacet
facet normal -1.0 -1.2457758758600476e-16 -3.581364595565022e-16
  outer loop
    vertex 105.38383728934366 3.8695239797193377 1.0159999999999978
    vertex 105.38383728934366 6.4095239797193395 2.641599999999998
    vertex 105.38383728934366 34.501923979719336 1.0159999999999978
  endloop
endfacet
facet normal -1.0 -1.2457758758600476e-16 -3.581364595565022e-16
  outer loop
    vertex 105.38383728934366 6.4095239797193395 2.641599999999998
    vertex 105.38383728934366 3.8695239797193377 1.0159999999999978
    vertex 105.38383728934366 3.8695239797193395 8.889999999999997
  endloop
endfacet
facet normal -1.0 -1.2457758758600476e-16 -3.581364595565022e-16
  outer loop
    vertex 105.38383728934366 6.4095239797193395 2.641599999999998
    vertex 105.38383728934366 3.8695239797193395 8.889999999999997
    vertex 105.38383728934366 6.4095239797193395 8.889999999999997
  endloop
endfacet
facet normal -1.0 -1.2457758758600476e-16 -3.581364595565022e-16
  outer loop
    vertex 105.38383728934366 34.501923979719336 1.0159999999999978
    vertex 105.38383728934366 6.4095239797193395 2.641599999999998
    vertex 105.38383728934366 31.961923979719334 2.641599999999998
  endloop
endfacet
facet normal -1.0 -1.2457758758600476e-16 -3.581364595565022e-16
  outer loop
    vertex 105.38383728934366 34.501923979719336 1.0159999999999978
    vertex 105.38383728934366 31.961923979719334 2.641599999999998
    vertex 105.38383728934366 34.501923979719336 8.889999999999997
  endloop
endfacet
facet normal 0.0 1.0 0.0
  outer loop
    vertex 108.93983728934364 6.4095239797193395 8.889999999999999
    vertex 111.47983728934364 6.4095239797193395 2.6415999999999995
    vertex 108.93983728934364 6.4095239797193395 2.6415999999999986
  endloop
endfacet
facet normal 0.0 1.0 0.0
  outer loop
    vertex 111.47983728934364 6.4095239797193395 2.6415999999999995
    vertex 108.93983728934364 6.4095239797193395 8.889999999999999
    vertex 111.47983728934364 6.4095239797193395 8.889999999999999
  endloop
endfacet
facet normal 0.0 0.0 -1.0
  outer loop
    vertex 68.55383728934365 5.730388411716648 3.0479999999999996
    vertex 66.77583728934364 2.853523979719339 3.0479999999999996
    vertex 66.77583728934364 5.730388411716648 3.0479999999999996
  endloop
endfacet
facet normal 0.0 0.0 -1.0
  outer loop
    vertex 66.77583728934364 2.853523979719339 3.0479999999999996
    vertex 68.55383728934365 5.730388411716648 3.0479999999999996
    vertex 68.55383728934365 2.853523979719339 3.0479999999999996
  endloop
endfacet
facet normal 8.257543381047971e-17 -1.0 2.1163220726456969e-16
  outer loop
    vertex 105.38383728934366 34.501923979719336 8.889999999999997
    vertex 71.06848808934365 34.50192397971933 1.0160000000000027
    vertex 105.38383728934366 34.501923979719336 1.0159999999999978
  endloop
endfacet
facet normal 8.257543381047971e-17 -1.0 2.1163220726456969e-16
  outer loop
    vertex 71.06848808934365 34.50192397971933 1.0160000000000027
    vertex 105.38383728934366 34.501923979719336 8.889999999999997
    vertex 71.06848808934365 34.501923979719336 8.889999999999999
  endloop
endfacet
facet normal -1.0 -0.0 -0.0
  outer loop
    vertex 68.55383728934365 35.517923979719335 3.0479999999999996
    vertex 68.55383728934365 32.62232397971933 0.0
    vertex 68.55383728934365 32.62232397971933 3.0479999999999996
  endloop
endfacet
facet normal -1.0 -0.0 -0.0
  outer loop
    vertex 68.55383728934365 32.62232397971933 0.0
    vertex 68.55383728934365 35.517923979719335 3.0479999999999996
    vertex 68.55383728934365 35.517923979719335 0.0
  endloop
endfacet
facet normal 0.0 1.0 0.0
  outer loop
    vertex 66.77583728934364 5.730388411716648 8.889999999999997
    vertex 68.55383728934365 5.730388411716648 3.0479999999999996
    vertex 66.77583728934364 5.730388411716648 3.0479999999999996
  endloop
endfacet
facet normal 0.0 1.0 0.0
  outer loop
    vertex 68.55383728934365 5.730388411716648 3.0479999999999996
    vertex 66.77583728934364 5.730388411716648 8.889999999999997
    vertex 69.36663728934364 5.730388411716648 5.3340000000000005
  endloop
endfacet
facet normal 0.0 1.0 0.0
  outer loop
    vertex 69.36663728934364 5.730388411716648 5.3340000000000005
    vertex 66.77583728934364 5.730388411716648 8.889999999999997
    vertex 69.36663728934364 5.730388411716648 8.889999999999995
  endloop
endfacet
facet normal 0.0 1.0 0.0
  outer loop
    vertex 68.55383728934365 5.730388411716648 1.016
    vertex 69.36663728934364 5.730388411716648 5.3340000000000005
    vertex 69.36663728934364 5.730388411716648 1.0159999999999998
  endloop
endfacet
facet normal 0.0 1.0 0.0
  outer loop
    vertex 69.36663728934364 5.730388411716648 5.3340000000000005
    vertex 68.55383728934365 5.730388411716648 1.016
    vertex 68.55383728934365 5.730388411716648 3.0479999999999996
  endloop
endfacet
facet normal -0.0 -1.0 -0.0
  outer loop
    vertex 71.06848808934365 31.961923979719334 8.889999999999999
    vertex 68.52848808934364 31.961923979719334 1.0159999999999993
    vertex 71.06848808934365 31.961923979719334 1.0159999999999993
  endloop
endfacet
facet normal -0.0 -1.0 -0.0
  outer loop
    vertex 68.52848808934364 31.961923979719334 1.0159999999999993
    vertex 71.06848808934365 31.961923979719334 8.889999999999999
    vertex 68.52848808934364 31.961923979719334 8.889999999999999
  endloop
endfacet
facet normal 1.0 0.0 0.0
  outer loop
    vertex 68.52848808934364 31.961923979719334 1.0159999999999993
    vertex 68.52848808934364 19.876095979719338 5.3340000000000005
    vertex 68.52848808934364 19.876095979719338 1.016
  endloop
endfacet
facet normal 1.0 0.0 0.0
  outer loop
    vertex 68.52848808934364 19.876095979719338 5.3340000000000005
    vertex 68.52848808934364 17.33609597971934 8.889999999999997
    vertex 68.52848808934364 17.33609597971934 5.3340000000000005
  endloop
endfacet
facet normal 1.0 0.0 0.0
  outer loop
    vertex 68.52848808934364 17.33609597971934 8.889999999999997
    vertex 68.52848808934364 19.876095979719338 5.3340000000000005
    vertex 68.52848808934364 31.961923979719334 8.889999999999999
  endloop
endfacet
facet normal 1.0 0.0 0.0
  outer loop
    vertex 68.52848808934364 31.961923979719334 8.889999999999999
    vertex 68.52848808934364 19.876095979719338 5.3340000000000005
    vertex 68.52848808934364 31.961923979719334 1.0159999999999993
  endloop
endfacet
facet normal 1.0 1.3570846949301068e-16 2.3686454798715285e-16
  outer loop
    vertex 111.47983728934364 2.853523979719339 0.0
    vertex 111.47983728934364 6.4095239797193395 2.6415999999999995
    vertex 111.47983728934364 2.85352397971934 8.889999999999999
  endloop
endfacet
facet normal 1.0 1.3570846949301068e-16 2.3686454798715285e-16
  outer loop
    vertex 111.47983728934364 6.4095239797193395 2.6415999999999995
    vertex 111.47983728934364 2.853523979719339 0.0
    vertex 111.47983728934364 35.517923979719335 0.0
  endloop
endfacet
facet normal 1.0 1.3570846949301068e-16 2.3686454798715285e-16
  outer loop
    vertex 111.47983728934364 6.4095239797193395 2.6415999999999995
    vertex 111.47983728934364 35.517923979719335 0.0
    vertex 111.47983728934364 31.961923979719334 2.6415999999999995
  endloop
endfacet
facet normal 1.0 1.3570846949301068e-16 2.3686454798715285e-16
  outer loop
    vertex 111.47983728934364 31.961923979719334 2.6415999999999995
    vertex 111.47983728934364 35.517923979719335 0.0
    vertex 111.47983728934364 31.961923979719334 8.889999999999999
  endloop
endfacet
facet normal 1.0 1.3570846949301068e-16 2.3686454798715285e-16
  outer loop
    vertex 111.47983728934364 31.961923979719334 8.889999999999999
    vertex 111.47983728934364 35.517923979719335 0.0
    vertex 111.47983728934364 35.517923979719335 8.889999999999999
  endloop
endfacet
facet normal 1.0 1.3570846949301068e-16 2.3686454798715285e-16
  outer loop
    vertex 111.47983728934364 6.4095239797193395 8.889999999999999
    vertex 111.47983728934364 2.85352397971934 8.889999999999999
    vertex 111.47983728934364 6.4095239797193395 2.6415999999999995
  endloop
endfacet
facet normal 4.564002460828923e-18 -1.0 6.524242761998733e-17
  outer loop
    vertex 111.47983728934364 2.85352397971934 8.889999999999999
    vertex 68.55383728934365 2.853523979719339 0.0
    vertex 111.47983728934364 2.853523979719339 0.0
  endloop
endfacet
facet normal 4.564002460828923e-18 -1.0 6.524242761998733e-17
  outer loop
    vertex 68.55383728934365 2.853523979719339 0.0
    vertex 111.47983728934364 2.85352397971934 8.889999999999999
    vertex 68.55383728934365 2.853523979719339 3.0479999999999996
  endloop
endfacet
facet normal 4.564002460828923e-18 -1.0 6.524242761998733e-17
  outer loop
    vertex 68.55383728934365 2.853523979719339 3.0479999999999996
    vertex 111.47983728934364 2.85352397971934 8.889999999999999
    vertex 66.77583728934364 2.853523979719339 3.0479999999999996
  endloop
endfacet
facet normal 4.564002460828923e-18 -1.0 6.524242761998733e-17
  outer loop
    vertex 66.77583728934364 2.853523979719339 3.0479999999999996
    vertex 111.47983728934364 2.85352397971934 8.889999999999999
    vertex 66.77583728934364 2.8535239797193395 8.889999999999999
  endloop
endfacet
facet normal 0.0 1.0 0.0
  outer loop
    vertex 66.77583728934364 35.517923979719335 8.889999999999999
    vertex 68.55383728934365 35.517923979719335 3.0479999999999996
    vertex 66.77583728934364 35.517923979719335 3.0479999999999996
  endloop
endfacet
facet normal 0.0 1.0 0.0
  outer loop
    vertex 68.55383728934365 35.517923979719335 3.0479999999999996
    vertex 111.47983728934364 35.517923979719335 0.0
    vertex 68.55383728934365 35.517923979719335 0.0
  endloop
endfacet
facet normal 0.0 1.0 0.0
  outer loop
    vertex 111.47983728934364 35.517923979719335 0.0
    vertex 68.55383728934365 35.517923979719335 3.0479999999999996
    vertex 111.47983728934364 35.517923979719335 8.889999999999999
  endloop
endfacet
facet normal 0.0 1.0 0.0
  outer loop
    vertex 111.47983728934364 35.517923979719335 8.889999999999999
    vertex 68.55383728934365 35.517923979719335 3.0479999999999996
    vertex 66.77583728934364 35.517923979719335 8.889999999999999
  endloop
endfacet
facet normal 1.0 0.0 0.0
  outer loop
    vertex 69.36663728934364 5.730388411716648 5.3340000000000005
    vertex 69.36663728934364 3.8695239797193395 8.889999999999995
    vertex 69.36663728934364 3.8695239797193395 5.3340000000000005
  endloop
endfacet
facet normal 1.0 0.0 0.0
  outer loop
    vertex 69.36663728934364 3.8695239797193395 8.889999999999995
    vertex 69.36663728934364 5.730388411716648 5.3340000000000005
    vertex 69.36663728934364 5.730388411716648 8.889999999999995
  endloop
endfacet
facet normal -1.0 0.0 0.0
  outer loop
    vertex 68.55383728934365 5.730388411716648 3.0479999999999996
    vertex 68.55383728934365 2.853523979719339 0.0
    vertex 68.55383728934365 2.853523979719339 3.0479999999999996
  endloop
endfacet
facet normal -1.0 0.0 0.0
  outer loop
    vertex 68.55383728934365 2.853523979719339 0.0
    vertex 68.55383728934365 5.730388411716648 3.0479999999999996
    vertex 68.55383728934365 5.730388411716648 0.0
  endloop
endfacet
facet normal -1.0 0.0 0.0
  outer loop
    vertex 68.55383728934365 5.730388411716648 0.0
    vertex 68.55383728934365 5.730388411716648 3.0479999999999996
    vertex 68.55383728934365 5.730388411716648 1.016
  endloop
endfacet
facet normal 1.0 0.0 0.0
  outer loop
    vertex 71.06848808934365 34.50192397971933 1.0160000000000027
    vertex 71.06848808934365 31.961923979719334 8.889999999999999
    vertex 71.06848808934365 31.961923979719334 1.0159999999999993
  endloop
endfacet
facet normal 1.0 0.0 0.0
  outer loop
    vertex 71.06848808934365 31.961923979719334 8.889999999999999
    vertex 71.06848808934365 34.50192397971933 1.0160000000000027
    vertex 71.06848808934365 34.501923979719336 8.889999999999999
  endloop
endfacet
facet normal -1.1895246692412497e-15 -5.518007080641933e-17 1.0
  outer loop
    vertex 107.16183728934364 6.4095239797193395 2.6415999999999986
    vertex 105.38383728934366 31.961923979719334 2.641599999999998
    vertex 105.38383728934366 6.4095239797193395 2.641599999999998
  endloop
endfacet
facet normal -1.1895246692412497e-15 -5.518007080641933e-17 1.0
  outer loop
    vertex 105.38383728934366 31.961923979719334 2.641599999999998
    vertex 107.16183728934364 6.4095239797193395 2.6415999999999986
    vertex 107.16183728934364 31.961923979719334 2.6416000000000013
  endloop
endfacet
facet normal 0.0 -1.0 0.0
  outer loop
    vertex 107.16183728934364 31.961923979719334 2.6416000000000013
    vertex 105.38383728934366 31.961923979719334 8.889999999999997
    vertex 105.38383728934366 31.961923979719334 2.641599999999998
  endloop
endfacet
facet normal 0.0 -1.0 0.0
  outer loop
    vertex 105.38383728934366 31.961923979719334 8.889999999999997
    vertex 107.16183728934364 31.961923979719334 2.6416000000000013
    vertex 107.16183728934364 31.961923979719334 8.889999999999999
  endloop
endfacet
facet normal 2.088319672380571e-18 1.0 -2.1783425202727872e-17
  outer loop
    vertex 69.36663728934364 3.8695239797193395 8.889999999999995
    vertex 70.63663728934365 3.8695239797193395 5.3340000000000005
    vertex 69.36663728934364 3.8695239797193395 5.3340000000000005
  endloop
endfacet
facet normal 2.088319672380571e-18 1.0 -2.1783425202727872e-17
  outer loop
    vertex 70.63663728934365 3.8695239797193395 1.016
    vertex 105.38383728934366 3.8695239797193395 8.889999999999997
    vertex 105.38383728934366 3.8695239797193377 1.0159999999999978
  endloop
endfacet
facet normal 2.088319672380571e-18 1.0 -2.1783425202727872e-17
  outer loop
    vertex 105.38383728934366 3.8695239797193395 8.889999999999997
    vertex 70.63663728934365 3.8695239797193395 1.016
    vertex 70.63663728934365 3.8695239797193395 5.3340000000000005
  endloop
endfacet
facet normal 2.088319672380571e-18 1.0 -2.1783425202727872e-17
  outer loop
    vertex 105.38383728934366 3.8695239797193395 8.889999999999997
    vertex 70.63663728934365 3.8695239797193395 5.3340000000000005
    vertex 69.36663728934364 3.8695239797193395 8.889999999999995
  endloop
endfacet
facet normal 0.0 1.0 0.0
  outer loop
    vertex 66.77583728934364 32.62232397971933 3.0479999999999996
    vertex 68.55383728934365 32.62232397971933 0.0
    vertex 66.77583728934364 32.62232397971933 0.0
  endloop
endfacet
facet normal 0.0 1.0 0.0
  outer loop
    vertex 68.55383728934365 32.62232397971933 0.0
    vertex 66.77583728934364 32.62232397971933 3.0479999999999996
    vertex 68.55383728934365 32.62232397971933 3.0479999999999996
  endloop
endfacet
facet normal 0.0 0.0 -1.0
  outer loop
    vertex 111.47983728934364 35.517923979719335 0.0
    vertex 68.55383728934365 32.62232397971933 0.0
    vertex 68.55383728934365 35.517923979719335 0.0
  endloop
endfacet
facet normal 0.0 0.0 -1.0
  outer loop
    vertex 68.55383728934365 32.62232397971933 0.0
    vertex 111.47983728934364 35.517923979719335 0.0
    vertex 68.55383728934365 5.730388411716648 0.0
  endloop
endfacet
facet normal 0.0 0.0 -1.0
  outer loop
    vertex 68.55383728934365 5.730388411716648 0.0
    vertex 111.47983728934364 35.517923979719335 0.0
    vertex 68.55383728934365 2.853523979719339 0.0
  endloop
endfacet
facet normal 0.0 0.0 -1.0
  outer loop
    vertex 68.55383728934365 2.853523979719339 0.0
    vertex 111.47983728934364 35.517923979719335 0.0
    vertex 111.47983728934364 2.853523979719339 0.0
  endloop
endfacet
facet normal 0.0 0.0 -1.0
  outer loop
    vertex 68.55383728934365 32.62232397971933 0.0
    vertex 66.77583728934364 5.730388411716648 0.0
    vertex 66.77583728934364 32.62232397971933 0.0
  endloop
endfacet
facet normal 0.0 0.0 -1.0
  outer loop
    vertex 66.77583728934364 5.730388411716648 0.0
    vertex 68.55383728934365 32.62232397971933 0.0
    vertex 68.55383728934365 5.730388411716648 0.0
  endloop
endfacet
facet normal 0.0 0.0 -1.0
  outer loop
    vertex 68.55383728934365 35.517923979719335 3.0479999999999996
    vertex 66.77583728934364 32.62232397971933 3.0479999999999996
    vertex 66.77583728934364 35.517923979719335 3.0479999999999996
  endloop
endfacet
facet normal 0.0 0.0 -1.0
  outer loop
    vertex 66.77583728934364 32.62232397971933 3.0479999999999996
    vertex 68.55383728934365 35.517923979719335 3.0479999999999996
    vertex 68.55383728934365 32.62232397971933 3.0479999999999996
  endloop
endfacet
facet normal -1.0 0.0 0.0
  outer loop
    vertex 69.36663728934364 17.33609597971934 5.3340000000000005
    vertex 69.36663728934364 5.730388411716648 1.0159999999999998
    vertex 69.36663728934364 5.730388411716648 5.3340000000000005
  endloop
endfacet
facet normal -1.0 0.0 0.0
  outer loop
    vertex 69.36663728934364 5.730388411716648 1.0159999999999998
    vertex 69.36663728934364 17.33609597971934 5.3340000000000005
    vertex 69.36663728934364 17.33609597971934 1.0159999999999996
  endloop
endfacet
facet normal -1.0483773365882815e-16 2.0071669765048827e-17 1.0
  outer loop
    vertex 68.55383728934365 5.730388411716648 1.016
    vertex 66.77583728934364 15.947161229536198 1.0159999999999993
    vertex 66.77583728934364 5.730388411716648 1.0159999999999993
  endloop
endfacet
facet normal -1.0483773365882815e-16 2.0071669765048827e-17 1.0
  outer loop
    vertex 66.77583728934364 15.947161229536198 1.0159999999999993
    vertex 68.55383728934365 5.730388411716648 1.016
    vertex 67.79183728934365 15.947161229536198 1.0159999999999993
  endloop
endfacet
facet normal -1.0483773365882815e-16 2.0071669765048827e-17 1.0
  outer loop
    vertex 67.79183728934365 15.947161229536198 1.0159999999999993
    vertex 68.55383728934365 5.730388411716648 1.016
    vertex 67.79183728934365 17.33609597971934 1.0159999999999993
  endloop
endfacet
facet normal -1.0483773365882815e-16 2.0071669765048827e-17 1.0
  outer loop
    vertex 67.79183728934365 17.33609597971934 1.0159999999999993
    vertex 68.55383728934365 5.730388411716648 1.016
    vertex 69.36663728934364 17.33609597971934 1.0159999999999996
  endloop
endfacet
facet normal -1.0483773365882815e-16 2.0071669765048827e-17 1.0
  outer loop
    vertex 69.36663728934364 17.33609597971934 1.0159999999999996
    vertex 68.55383728934365 5.730388411716648 1.016
    vertex 69.36663728934364 5.730388411716648 1.0159999999999998
  endloop
endfacet
facet normal -1.4092763958659162e-15 1.0 -2.3694639838675242e-32
  outer loop
    vertex 68.52848808934364 19.876095979719338 5.3340000000000005
    vertex 70.63663728934365 19.87609597971934 1.016
    vertex 68.52848808934364 19.876095979719338 1.016
  endloop
endfacet
facet normal -1.4092763958659162e-15 1.0 -2.3694639838675242e-32
  outer loop
    vertex 70.63663728934365 19.87609597971934 1.016
    vertex 68.52848808934364 19.876095979719338 5.3340000000000005
    vertex 70.63663728934365 19.87609597971934 5.3340000000000005
  endloop
endfacet
facet normal 1.0 7.995650150339011e-17 8.432323105808668e-17
  outer loop
    vertex 70.63663728934365 19.87609597971934 1.016
    vertex 70.63663728934365 3.8695239797193395 5.3340000000000005
    vertex 70.63663728934365 3.8695239797193395 1.016
  endloop
endfacet
facet normal 1.0 7.995650150339011e-17 8.432323105808668e-17
  outer loop
    vertex 70.63663728934365 3.8695239797193395 5.3340000000000005
    vertex 70.63663728934365 19.87609597971934 1.016
    vertex 70.63663728934365 19.87609597971934 5.3340000000000005
  endloop
endfacet
facet normal 2.848114040075529e-17 -1.2557395391610423e-17 1.0
  outer loop
    vertex 105.38383728934366 3.8695239797193377 1.0159999999999978
    vertex 70.63663728934365 19.87609597971934 1.016
    vertex 70.63663728934365 3.8695239797193395 1.016
  endloop
endfacet
facet normal 2.848114040075529e-17 -1.2557395391610423e-17 1.0
  outer loop
    vertex 70.63663728934365 19.87609597971934 1.016
    vertex 105.38383728934366 3.8695239797193377 1.0159999999999978
    vertex 71.06848808934365 31.961923979719334 1.0159999999999993
  endloop
endfacet
facet normal 2.848114040075529e-17 -1.2557395391610423e-17 1.0
  outer loop
    vertex 71.06848808934365 31.961923979719334 1.0159999999999993
    vertex 105.38383728934366 3.8695239797193377 1.0159999999999978
    vertex 71.06848808934365 34.50192397971933 1.0160000000000027
  endloop
endfacet
facet normal 2.848114040075529e-17 -1.2557395391610423e-17 1.0
  outer loop
    vertex 71.06848808934365 34.50192397971933 1.0160000000000027
    vertex 105.38383728934366 3.8695239797193377 1.0159999999999978
    vertex 105.38383728934366 34.501923979719336 1.0159999999999978
  endloop
endfacet
facet normal 2.848114040075529e-17 -1.2557395391610423e-17 1.0
  outer loop
    vertex 70.63663728934365 19.87609597971934 1.016
    vertex 68.52848808934364 31.961923979719334 1.0159999999999993
    vertex 68.52848808934364 19.876095979719338 1.016
  endloop
endfacet
facet normal 2.848114040075529e-17 -1.2557395391610423e-17 1.0
  outer loop
    vertex 68.52848808934364 31.961923979719334 1.0159999999999993
    vertex 70.63663728934365 19.87609597971934 1.016
    vertex 71.06848808934365 31.961923979719334 1.0159999999999993
  endloop
endfacet
facet normal 0.0 0.0 1.0
  outer loop
    vertex 70.63663728934365 3.8695239797193395 5.3340000000000005
    vertex 69.36663728934364 5.730388411716648 5.3340000000000005
    vertex 69.36663728934364 3.8695239797193395 5.3340000000000005
  endloop
endfacet
facet normal 0.0 0.0 1.0
  outer loop
    vertex 69.36663728934364 5.730388411716648 5.3340000000000005
    vertex 70.63663728934365 3.8695239797193395 5.3340000000000005
    vertex 69.36663728934364 17.33609597971934 5.3340000000000005
  endloop
endfacet
facet normal 0.0 0.0 1.0
  outer loop
    vertex 69.36663728934364 17.33609597971934 5.3340000000000005
    vertex 68.52848808934364 19.876095979719338 5.3340000000000005
    vertex 68.52848808934364 17.33609597971934 5.3340000000000005
  endloop
endfacet
facet normal 0.0 0.0 1.0
  outer loop
    vertex 68.52848808934364 19.876095979719338 5.3340000000000005
    vertex 69.36663728934364 17.33609597971934 5.3340000000000005
    vertex 70.63663728934365 19.87609597971934 5.3340000000000005
  endloop
endfacet
facet normal 0.0 0.0 1.0
  outer loop
    vertex 70.63663728934365 19.87609597971934 5.3340000000000005
    vertex 69.36663728934364 17.33609597971934 5.3340000000000005
    vertex 70.63663728934365 3.8695239797193395 5.3340000000000005
  endloop
endfacet
facet normal 0.0 -1.0 0.0
  outer loop
    vertex 69.36663728934364 17.33609597971934 1.0159999999999996
    vertex 67.79183728934365 17.33609597971934 8.889999999999997
    vertex 67.79183728934365 17.33609597971934 1.0159999999999993
  endloop
endfacet
facet normal 0.0 -1.0 0.0
  outer loop
    vertex 67.79183728934365 17.33609597971934 8.889999999999997
    vertex 69.36663728934364 17.33609597971934 1.0159999999999996
    vertex 68.52848808934364 17.33609597971934 5.3340000000000005
  endloop
endfacet
facet normal 0.0 -1.0 0.0
  outer loop
    vertex 68.52848808934364 17.33609597971934 5.3340000000000005
    vertex 69.36663728934364 17.33609597971934 1.0159999999999996
    vertex 69.36663728934364 17.33609597971934 5.3340000000000005
  endloop
endfacet
facet normal 0.0 -1.0 0.0
  outer loop
    vertex 67.79183728934365 17.33609597971934 8.889999999999997
    vertex 68.52848808934364 17.33609597971934 5.3340000000000005
    vertex 68.52848808934364 17.33609597971934 8.889999999999997
  endloop
endfacet
facet normal 0.0 -1.0 0.0
  outer loop
    vertex 67.79183728934365 15.947161229536198 8.889999999999997
    vertex 66.77583728934364 15.947161229536198 1.0159999999999993
    vertex 67.79183728934365 15.947161229536198 1.0159999999999993
  endloop
endfacet
facet normal 0.0 -1.0 0.0
  outer loop
    vertex 66.77583728934364 15.947161229536198 1.0159999999999993
    vertex 67.79183728934365 15.947161229536198 8.889999999999997
    vertex 66.77583728934364 15.947161229536198 8.889999999999999
  endloop
endfacet
facet normal -1.0 0.0 0.0
  outer loop
    vertex 66.77583728934364 2.8535239797193395 8.889999999999999
    vertex 66.77583728934364 5.730388411716648 3.0479999999999996
    vertex 66.77583728934364 2.853523979719339 3.0479999999999996
  endloop
endfacet
facet normal -1.0 0.0 0.0
  outer loop
    vertex 66.77583728934364 5.730388411716648 3.0479999999999996
    vertex 66.77583728934364 2.8535239797193395 8.889999999999999
    vertex 66.77583728934364 5.730388411716648 8.889999999999997
  endloop
endfacet
facet normal -1.0 0.0 0.0
  outer loop
    vertex 66.77583728934364 35.517923979719335 8.889999999999999
    vertex 66.77583728934364 15.947161229536198 1.0159999999999993
    vertex 66.77583728934364 15.947161229536198 8.889999999999999
  endloop
endfacet
facet normal -1.0 0.0 0.0
  outer loop
    vertex 66.77583728934364 15.947161229536198 1.0159999999999993
    vertex 66.77583728934364 35.517923979719335 8.889999999999999
    vertex 66.77583728934364 32.62232397971933 3.0479999999999996
  endloop
endfacet
facet normal -1.0 0.0 0.0
  outer loop
    vertex 66.77583728934364 32.62232397971933 3.0479999999999996
    vertex 66.77583728934364 35.517923979719335 8.889999999999999
    vertex 66.77583728934364 35.517923979719335 3.0479999999999996
  endloop
endfacet
facet normal -1.0 0.0 0.0
  outer loop
    vertex 66.77583728934364 15.947161229536198 1.0159999999999993
    vertex 66.77583728934364 5.730388411716648 0.0
    vertex 66.77583728934364 5.730388411716648 1.0159999999999993
  endloop
endfacet
facet normal -1.0 0.0 0.0
  outer loop
    vertex 66.77583728934364 5.730388411716648 0.0
    vertex 66.77583728934364 15.947161229536198 1.0159999999999993
    vertex 66.77583728934364 32.62232397971933 0.0
  endloop
endfacet
facet normal -1.0 0.0 0.0
  outer loop
    vertex 66.77583728934364 32.62232397971933 0.0
    vertex 66.77583728934364 15.947161229536198 1.0159999999999993
    vertex 66.77583728934364 32.62232397971933 3.0479999999999996
  endloop
endfacet
facet normal 0.0 -1.0 0.0
  outer loop
    vertex 68.55383728934365 5.730388411716648 1.016
    vertex 66.77583728934364 5.730388411716648 0.0
    vertex 68.55383728934365 5.730388411716648 0.0
  endloop
endfacet
facet normal 0.0 -1.0 0.0
  outer loop
    vertex 66.77583728934364 5.730388411716648 0.0
    vertex 68.55383728934365 5.730388411716648 1.016
    vertex 66.77583728934364 5.730388411716648 1.0159999999999993
  endloop
endfacet
facet normal 1.0 0.0 0.0
  outer loop
    vertex 67.79183728934365 17.33609597971934 1.0159999999999993
    vertex 67.79183728934365 15.947161229536198 8.889999999999997
    vertex 67.79183728934365 15.947161229536198 1.0159999999999993
  endloop
endfacet
facet normal 1.0 0.0 0.0
  outer loop
    vertex 67.79183728934365 15.947161229536198 8.889999999999997
    vertex 67.79183728934365 17.33609597971934 1.0159999999999993
    vertex 67.79183728934365 17.33609597971934 8.889999999999997
  endloop
endfacet
facet normal -0.0 -1.0 -0.0
  outer loop
    vertex 108.93983728934364 34.755923979719334 8.889999999999999
    vertex 107.16183728934364 34.755923979719334 1.0159999999999973
    vertex 108.93983728934364 34.755923979719334 1.0159999999999973
  endloop
endfacet
facet normal -0.0 -1.0 -0.0
  outer loop
    vertex 107.16183728934364 34.755923979719334 1.0159999999999973
    vertex 108.93983728934364 34.755923979719334 8.889999999999999
    vertex 107.16183728934364 34.755923979719334 8.889999999999999
  endloop
endfacet
facet normal 0.0 1.0 0.0
  outer loop
    vertex 105.38383728934366 6.4095239797193395 8.889999999999997
    vertex 107.16183728934364 6.4095239797193395 2.6415999999999986
    vertex 105.38383728934366 6.4095239797193395 2.641599999999998
  endloop
endfacet
facet normal 0.0 1.0 0.0
  outer loop
    vertex 107.16183728934364 6.4095239797193395 2.6415999999999986
    vertex 105.38383728934366 6.4095239797193395 8.889999999999997
    vertex 107.16183728934364 6.4095239797193395 8.889999999999999
  endloop
endfacet
facet normal 1.0 0.0 0.0
  outer loop
    vertex 107.16183728934364 3.615523979719339 1.0159999999999945
    vertex 107.16183728934364 6.4095239797193395 2.6415999999999986
    vertex 107.16183728934364 3.615523979719339 8.889999999999999
  endloop
endfacet
facet normal 1.0 0.0 0.0
  outer loop
    vertex 107.16183728934364 6.4095239797193395 2.6415999999999986
    vertex 107.16183728934364 3.615523979719339 1.0159999999999945
    vertex 107.16183728934364 34.755923979719334 1.0159999999999973
  endloop
endfacet
facet normal 1.0 0.0 0.0
  outer loop
    vertex 107.16183728934364 6.4095239797193395 2.6415999999999986
    vertex 107.16183728934364 34.755923979719334 1.0159999999999973
    vertex 107.16183728934364 31.961923979719334 2.6416000000000013
  endloop
endfacet
facet normal 1.0 0.0 0.0
  outer loop
    vertex 107.16183728934364 31.961923979719334 2.6416000000000013
    vertex 107.16183728934364 34.755923979719334 1.0159999999999973
    vertex 107.16183728934364 31.961923979719334 8.889999999999999
  endloop
endfacet
facet normal 1.0 0.0 0.0
  outer loop
    vertex 107.16183728934364 31.961923979719334 8.889999999999999
    vertex 107.16183728934364 34.755923979719334 1.0159999999999973
    vertex 107.16183728934364 34.755923979719334 8.889999999999999
  endloop
endfacet
facet normal 1.0 0.0 0.0
  outer loop
    vertex 107.16183728934364 6.4095239797193395 8.889999999999999
    vertex 107.16183728934364 3.615523979719339 8.889999999999999
    vertex 107.16183728934364 6.4095239797193395 2.6415999999999986
  endloop
endfacet
facet normal 6.2315649784555155e-18 -5.673116774033018e-17 1.0
  outer loop
    vertex 107.16183728934364 31.961923979719334 8.889999999999999
    vertex 105.38383728934366 34.501923979719336 8.889999999999997
    vertex 105.38383728934366 31.961923979719334 8.889999999999997
  endloop
endfacet
facet normal 6.2315649784555155e-18 -5.673116774033018e-17 1.0
  outer loop
    vertex 111.47983728934364 31.961923979719334 8.889999999999999
    vertex 108.93983728934364 34.755923979719334 8.889999999999999
    vertex 108.93983728934364 31.961923979719334 8.889999999999999
  endloop
endfacet
facet normal 6.2315649784555155e-18 -5.673116774033018e-17 1.0
  outer loop
    vertex 67.79183728934365 15.947161229536198 8.889999999999997
    vertex 66.77583728934364 35.517923979719335 8.889999999999999
    vertex 66.77583728934364 15.947161229536198 8.889999999999999
  endloop
endfacet
facet normal 6.2315649784555155e-18 -5.673116774033018e-17 1.0
  outer loop
    vertex 66.77583728934364 35.517923979719335 8.889999999999999
    vertex 67.79183728934365 15.947161229536198 8.889999999999997
    vertex 67.79183728934365 17.33609597971934 8.889999999999997
  endloop
endfacet
facet normal 6.2315649784555155e-18 -5.673116774033018e-17 1.0
  outer loop
    vertex 66.77583728934364 35.517923979719335 8.889999999999999
    vertex 67.79183728934365 17.33609597971934 8.889999999999997
    vertex 68.52848808934364 31.961923979719334 8.889999999999999
  endloop
endfacet
facet normal 6.2315649784555155e-18 -5.673116774033018e-17 1.0
  outer loop
    vertex 66.77583728934364 35.517923979719335 8.889999999999999
    vertex 68.52848808934364 31.961923979719334 8.889999999999999
    vertex 71.06848808934365 34.501923979719336 8.889999999999999
  endloop
endfacet
facet normal 6.2315649784555155e-18 -5.673116774033018e-17 1.0
  outer loop
    vertex 66.77583728934364 35.517923979719335 8.889999999999999
    vertex 71.06848808934365 34.501923979719336 8.889999999999999
    vertex 111.47983728934364 35.517923979719335 8.889999999999999
  endloop
endfacet
facet normal 6.2315649784555155e-18 -5.673116774033018e-17 1.0
  outer loop
    vertex 68.52848808934364 31.961923979719334 8.889999999999999
    vertex 67.79183728934365 17.33609597971934 8.889999999999997
    vertex 68.52848808934364 17.33609597971934 8.889999999999997
  endloop
endfacet
facet normal 6.2315649784555155e-18 -5.673116774033018e-17 1.0
  outer loop
    vertex 71.06848808934365 34.501923979719336 8.889999999999999
    vertex 68.52848808934364 31.961923979719334 8.889999999999999
    vertex 71.06848808934365 31.961923979719334 8.889999999999999
  endloop
endfacet
facet normal 6.2315649784555155e-18 -5.673116774033018e-17 1.0
  outer loop
    vertex 111.47983728934364 35.517923979719335 8.889999999999999
    vertex 71.06848808934365 34.501923979719336 8.889999999999999
    vertex 105.38383728934366 34.501923979719336 8.889999999999997
  endloop
endfacet
facet normal 6.2315649784555155e-18 -5.673116774033018e-17 1.0
  outer loop
    vertex 111.47983728934364 35.517923979719335 8.889999999999999
    vertex 105.38383728934366 34.501923979719336 8.889999999999997
    vertex 107.16183728934364 34.755923979719334 8.889999999999999
  endloop
endfacet
facet normal 6.2315649784555155e-18 -5.673116774033018e-17 1.0
  outer loop
    vertex 107.16183728934364 34.755923979719334 8.889999999999999
    vertex 105.38383728934366 34.501923979719336 8.889999999999997
    vertex 107.16183728934364 31.961923979719334 8.889999999999999
  endloop
endfacet
facet normal 6.2315649784555155e-18 -5.673116774033018e-17 1.0
  outer loop
    vertex 111.47983728934364 35.517923979719335 8.889999999999999
    vertex 107.16183728934364 34.755923979719334 8.889999999999999
    vertex 108.93983728934364 34.755923979719334 8.889999999999999
  endloop
endfacet
facet normal 6.2315649784555155e-18 -5.673116774033018e-17 1.0
  outer loop
    vertex 111.47983728934364 35.517923979719335 8.889999999999999
    vertex 108.93983728934364 34.755923979719334 8.889999999999999
    vertex 111.47983728934364 31.961923979719334 8.889999999999999
  endloop
endfacet
facet normal -2.0037038350450502e-45 -9.956785767163974e-17 1.0
  outer loop
    vertex 108.93983728934364 3.615523979719339 1.0159999999999945
    vertex 107.16183728934364 34.755923979719334 1.0159999999999973
    vertex 107.16183728934364 3.615523979719339 1.0159999999999945
  endloop
endfacet
facet normal -2.0037038350450502e-45 -9.956785767163974e-17 1.0
  outer loop
    vertex 107.16183728934364 34.755923979719334 1.0159999999999973
    vertex 108.93983728934364 3.615523979719339 1.0159999999999945
    vertex 108.93983728934364 34.755923979719334 1.0159999999999973
  endloop
endfacet
facet normal -1.0 0.0 0.0
  outer loop
    vertex 108.93983728934364 34.755923979719334 8.889999999999999
    vertex 108.93983728934364 31.961923979719334 2.6416000000000013
    vertex 108.93983728934364 31.961923979719334 8.889999999999999
  endloop
endfacet
facet normal -1.0 0.0 0.0
  outer loop
    vertex 108.93983728934364 6.4095239797193395 8.889999999999999
    vertex 108.93983728934364 3.615523979719339 1.0159999999999945
    vertex 108.93983728934364 3.615523979719339 8.889999999999999
  endloop
endfacet
facet normal -1.0 0.0 0.0
  outer loop
    vertex 108.93983728934364 3.615523979719339 1.0159999999999945
    vertex 108.93983728934364 6.4095239797193395 8.889999999999999
    vertex 108.93983728934364 6.4095239797193395 2.6415999999999986
  endloop
endfacet
facet normal -1.0 0.0 0.0
  outer loop
    vertex 108.93983728934364 3.615523979719339 1.0159999999999945
    vertex 108.93983728934364 6.4095239797193395 2.6415999999999986
    vertex 108.93983728934364 34.755923979719334 1.0159999999999973
  endloop
endfacet
facet normal -1.0 0.0 0.0
  outer loop
    vertex 108.93983728934364 34.755923979719334 1.0159999999999973
    vertex 108.93983728934364 6.4095239797193395 2.6415999999999986
    vertex 108.93983728934364 31.961923979719334 2.6416000000000013
  endloop
endfacet
facet normal -1.0 0.0 0.0
  outer loop
    vertex 108.93983728934364 34.755923979719334 1.0159999999999973
    vertex 108.93983728934364 31.961923979719334 2.6416000000000013
    vertex 108.93983728934364 34.755923979719334 8.889999999999999
  endloop
endfacet
endsolid Camera Battery 2
