solid Dell 2950 HD Caddy
facet normal -1.0 0.0 0.0
  outer loop
    vertex 6.808975663727045 7.876732943322292 8.966199999999999
    vertex 6.808975663727045 103.35533294332224 2.54
    vertex 6.808975663727045 7.876732943322288 2.54
  endloop
endfacet
facet normal -1.0 0.0 0.0
  outer loop
    vertex 6.808975663727045 103.35533294332224 2.54
    vertex 6.808975663727045 7.876732943322292 8.966199999999999
    vertex 6.808975663727045 103.35533294332224 8.966199999999999
  endloop
endfacet
facet normal 0.0 0.0 -1.0
  outer loop
    vertex 6.808975663727045 103.35533294332224 8.966199999999999
    vertex 0.966975663727057 7.876732943322292 8.966199999999999
    vertex 0.966975663727057 103.35533294332224 8.966199999999999
  endloop
endfacet
facet normal 0.0 0.0 -1.0
  outer loop
    vertex 0.966975663727057 7.876732943322292 8.966199999999999
    vertex 6.808975663727045 103.35533294332224 8.966199999999999
    vertex 6.808975663727045 7.876732943322292 8.966199999999999
  endloop
endfacet
facet normal 1.0 0.0 0.0
  outer loop
    vertex 118.56897566372704 103.35533294332224 2.54
    vertex 118.56897566372704 7.876732943322292 8.966199999999999
    vertex 118.56897566372704 7.876732943322292 2.54
  endloop
endfacet
facet normal 1.0 0.0 0.0
  outer loop
    vertex 118.56897566372704 7.876732943322292 8.966199999999999
    vertex 118.56897566372704 103.35533294332224 2.54
    vertex 118.56897566372704 103.35533294332224 8.966199999999999
  endloop
endfacet
facet normal 0.0 -1.0 0.0
  outer loop
    vertex 113.48897566372706 4.32073294332229 5.08
    vertex 11.888975663727049 4.32073294332229 2.54
    vertex 113.48897566372706 4.32073294332229 2.54
  endloop
endfacet
facet normal 0.0 -1.0 0.0
  outer loop
    vertex 11.888975663727049 4.32073294332229 2.54
    vertex 113.48897566372706 4.32073294332229 5.08
    vertex 11.888975663727049 4.32073294332229 5.08
  endloop
endfacet
facet normal 1.0 -9.495628998982004e-17 0.0
  outer loop
    vertex 16.968975663727054 100.16231549369702 2.54
    vertex 16.968975663727054 11.069750392947476 5.08
    vertex 16.968975663727054 11.069750392947476 2.54
  endloop
endfacet
facet normal 1.0 -9.495628998982004e-17 0.0
  outer loop
    vertex 16.968975663727054 11.069750392947476 5.08
    vertex 16.968975663727054 100.16231549369702 2.54
    vertex 16.968975663727054 100.16231549369702 5.08
  endloop
endfacet
facet normal 0.0 1.0 0.0
  outer loop
    vertex 11.888975663727049 106.91133294332225 5.08
    vertex 113.48897566372706 106.91133294332225 2.54
    vertex 11.888975663727049 106.91133294332225 2.54
  endloop
endfacet
facet normal 0.0 1.0 0.0
  outer loop
    vertex 113.48897566372706 106.91133294332225 2.54
    vertex 11.888975663727049 106.91133294332225 5.08
    vertex 113.48897566372706 106.91133294332225 5.08
  endloop
endfacet
facet normal 1.0 0.0 0.0
  outer loop
    vertex 11.888975663727049 103.35533294332224 5.08
    vertex 11.888975663727049 7.876732943322292 15.240000000000002
    vertex 11.888975663727049 7.876732943322292 5.08
  endloop
endfacet
facet normal 1.0 0.0 0.0
  outer loop
    vertex 11.888975663727049 7.876732943322292 15.240000000000002
    vertex 11.888975663727049 103.35533294332224 5.08
    vertex 11.888975663727049 103.35533294332224 15.240000000000002
  endloop
endfacet
facet normal 0.0 0.0 -1.0
  outer loop
    vertex 65.7469333169994 55.61603294332222 2.54
    vertex 105.35101801045471 7.876732943322282 2.54
    vertex 62.68897566372707 52.42301549369704 2.54
  endloop
endfacet
facet normal 0.0 0.0 -1.0
  outer loop
    vertex 105.35101801045471 7.876732943322282 2.54
    vertex 65.7469333169994 55.61603294332222 2.54
    vertex 108.40897566372709 11.069750392947471 2.54
  endloop
endfacet
facet normal 0.0 0.0 -1.0
  outer loop
    vertex 113.48897566372706 106.91133294332225 2.54
    vertex 11.888975663727049 103.35533294332224 2.54
    vertex 11.888975663727049 106.91133294332225 2.54
  endloop
endfacet
facet normal 0.0 0.0 -1.0
  outer loop
    vertex 11.888975663727049 103.35533294332224 2.54
    vertex 113.48897566372706 106.91133294332225 2.54
    vertex 20.02693331699941 103.35533294332224 2.54
  endloop
endfacet
facet normal 0.0 0.0 -1.0
  outer loop
    vertex 11.888975663727049 103.35533294332224 2.54
    vertex 20.02693331699941 103.35533294332224 2.54
    vertex 16.968975663727054 100.16231549369702 2.54
  endloop
endfacet
facet normal 0.0 0.0 -1.0
  outer loop
    vertex 11.888975663727049 103.35533294332224 2.54
    vertex 16.968975663727054 100.16231549369702 2.54
    vertex 11.888975663727049 7.876732943322292 2.54
  endloop
endfacet
facet normal 0.0 0.0 -1.0
  outer loop
    vertex 11.888975663727049 7.876732943322292 2.54
    vertex 16.968975663727054 100.16231549369702 2.54
    vertex 11.888975663727049 4.32073294332229 2.54
  endloop
endfacet
facet normal 0.0 0.0 -1.0
  outer loop
    vertex 20.02693331699941 103.35533294332224 2.54
    vertex 113.48897566372706 106.91133294332225 2.54
    vertex 105.35101801045471 103.35533294332224 2.54
  endloop
endfacet
facet normal 0.0 0.0 -1.0
  outer loop
    vertex 105.35101801045471 103.35533294332224 2.54
    vertex 113.48897566372706 106.91133294332225 2.54
    vertex 108.40897566372709 100.16231549369702 2.54
  endloop
endfacet
facet normal 0.0 0.0 -1.0
  outer loop
    vertex 108.40897566372709 100.16231549369702 2.54
    vertex 113.48897566372706 106.91133294332225 2.54
    vertex 108.40897566372709 11.069750392947471 2.54
  endloop
endfacet
facet normal 0.0 0.0 -1.0
  outer loop
    vertex 118.56897566372704 103.35533294332224 2.54
    vertex 113.48897566372706 7.876732943322288 2.54
    vertex 113.48897566372706 103.35533294332224 2.54
  endloop
endfacet
facet normal 0.0 0.0 -1.0
  outer loop
    vertex 113.48897566372706 7.876732943322288 2.54
    vertex 118.56897566372704 103.35533294332224 2.54
    vertex 118.56897566372704 7.876732943322292 2.54
  endloop
endfacet
facet normal 0.0 0.0 -1.0
  outer loop
    vertex 11.888975663727049 4.32073294332229 2.54
    vertex 20.026933316999386 7.8767329433222875 2.54
    vertex 113.48897566372706 4.32073294332229 2.54
  endloop
endfacet
facet normal 0.0 0.0 -1.0
  outer loop
    vertex 20.026933316999386 7.8767329433222875 2.54
    vertex 11.888975663727049 4.32073294332229 2.54
    vertex 16.968975663727054 11.069750392947476 2.54
  endloop
endfacet
facet normal 0.0 0.0 -1.0
  outer loop
    vertex 16.968975663727054 11.069750392947476 2.54
    vertex 11.888975663727049 4.32073294332229 2.54
    vertex 16.968975663727054 100.16231549369702 2.54
  endloop
endfacet
facet normal 0.0 0.0 -1.0
  outer loop
    vertex 113.48897566372706 4.32073294332229 2.54
    vertex 20.026933316999386 7.8767329433222875 2.54
    vertex 105.35101801045471 7.876732943322282 2.54
  endloop
endfacet
facet normal 0.0 0.0 -1.0
  outer loop
    vertex 113.48897566372706 4.32073294332229 2.54
    vertex 105.35101801045471 7.876732943322282 2.54
    vertex 108.40897566372709 11.069750392947471 2.54
  endloop
endfacet
facet normal 0.0 0.0 -1.0
  outer loop
    vertex 113.48897566372706 4.32073294332229 2.54
    vertex 108.40897566372709 11.069750392947471 2.54
    vertex 113.48897566372706 106.91133294332225 2.54
  endloop
endfacet
facet normal 0.0 0.0 -1.0
  outer loop
    vertex 113.48897566372706 4.32073294332229 2.54
    vertex 113.48897566372706 106.91133294332225 2.54
    vertex 113.48897566372706 103.35533294332224 2.54
  endloop
endfacet
facet normal 0.0 0.0 -1.0
  outer loop
    vertex 113.48897566372706 4.32073294332229 2.54
    vertex 113.48897566372706 103.35533294332224 2.54
    vertex 113.48897566372706 7.876732943322288 2.54
  endloop
endfacet
facet normal 0.0 0.0 -1.0
  outer loop
    vertex 59.63101801045469 55.61603294332222 2.54
    vertex 20.026933316999386 7.8767329433222875 2.54
    vertex 16.968975663727054 11.069750392947476 2.54
  endloop
endfacet
facet normal 0.0 0.0 -1.0
  outer loop
    vertex 20.026933316999386 7.8767329433222875 2.54
    vertex 59.63101801045469 55.61603294332222 2.54
    vertex 62.68897566372707 52.42301549369704 2.54
  endloop
endfacet
facet normal 0.0 0.0 -1.0
  outer loop
    vertex 62.68897566372707 52.42301549369704 2.54
    vertex 59.63101801045469 55.61603294332222 2.54
    vertex 62.68897566372707 58.8090503929475 2.54
  endloop
endfacet
facet normal 0.0 0.0 -1.0
  outer loop
    vertex 62.68897566372707 52.42301549369704 2.54
    vertex 62.68897566372707 58.8090503929475 2.54
    vertex 105.35101801045471 103.35533294332224 2.54
  endloop
endfacet
facet normal 0.0 0.0 -1.0
  outer loop
    vertex 62.68897566372707 52.42301549369704 2.54
    vertex 105.35101801045471 103.35533294332224 2.54
    vertex 65.7469333169994 55.61603294332222 2.54
  endloop
endfacet
facet normal 0.0 0.0 -1.0
  outer loop
    vertex 65.7469333169994 55.61603294332222 2.54
    vertex 105.35101801045471 103.35533294332224 2.54
    vertex 108.40897566372709 100.16231549369702 2.54
  endloop
endfacet
facet normal 0.0 0.0 -1.0
  outer loop
    vertex 20.02693331699941 103.35533294332224 2.54
    vertex 59.63101801045469 55.61603294332222 2.54
    vertex 16.968975663727054 100.16231549369702 2.54
  endloop
endfacet
facet normal 0.0 0.0 -1.0
  outer loop
    vertex 59.63101801045469 55.61603294332222 2.54
    vertex 20.02693331699941 103.35533294332224 2.54
    vertex 62.68897566372707 58.8090503929475 2.54
  endloop
endfacet
facet normal 0.0 0.0 -1.0
  outer loop
    vertex 11.888975663727049 103.35533294332224 2.54
    vertex 6.808975663727045 7.876732943322288 2.54
    vertex 6.808975663727045 103.35533294332224 2.54
  endloop
endfacet
facet normal 0.0 0.0 -1.0
  outer loop
    vertex 6.808975663727045 7.876732943322288 2.54
    vertex 11.888975663727049 103.35533294332224 2.54
    vertex 11.888975663727049 7.876732943322292 2.54
  endloop
endfacet
facet normal 0.0 0.0 1.0
  outer loop
    vertex 11.888975663727049 7.876732943322292 15.240000000000002
    vertex 0.966975663727057 103.35533294332224 15.240000000000002
    vertex 0.966975663727057 7.876732943322288 15.240000000000002
  endloop
endfacet
facet normal 0.0 0.0 1.0
  outer loop
    vertex 0.966975663727057 103.35533294332224 15.240000000000002
    vertex 11.888975663727049 7.876732943322292 15.240000000000002
    vertex 11.888975663727049 103.35533294332224 15.240000000000002
  endloop
endfacet
facet normal 0.0 1.0 0.0
  outer loop
    vertex 113.48897566372706 103.35533294332224 5.08
    vertex 118.56897566372704 103.35533294332224 2.54
    vertex 113.48897566372706 103.35533294332224 2.54
  endloop
endfacet
facet normal 0.0 1.0 0.0
  outer loop
    vertex 118.56897566372704 103.35533294332224 2.54
    vertex 113.48897566372706 103.35533294332224 5.08
    vertex 118.56897566372704 103.35533294332224 8.966199999999999
  endloop
endfacet
facet normal 0.0 1.0 0.0
  outer loop
    vertex 118.56897566372704 103.35533294332224 8.966199999999999
    vertex 113.48897566372706 103.35533294332224 5.08
    vertex 113.48897566372706 103.35533294332224 15.240000000000002
  endloop
endfacet
facet normal 0.0 1.0 0.0
  outer loop
    vertex 118.56897566372704 103.35533294332224 8.966199999999999
    vertex 113.48897566372706 103.35533294332224 15.240000000000002
    vertex 124.41097566372706 103.35533294332224 8.966199999999999
  endloop
endfacet
facet normal 0.0 1.0 0.0
  outer loop
    vertex 124.41097566372706 103.35533294332224 8.966199999999999
    vertex 113.48897566372706 103.35533294332224 15.240000000000002
    vertex 124.41097566372706 103.35533294332224 15.240000000000002
  endloop
endfacet
facet normal 0.7222161136591266 0.691667467191502 0.0
  outer loop
    vertex 65.7469333169994 55.61603294332222 2.54
    vertex 108.40897566372709 11.069750392947471 5.08
    vertex 108.40897566372709 11.069750392947471 2.54
  endloop
endfacet
facet normal 0.7222161136591266 0.691667467191502 0.0
  outer loop
    vertex 108.40897566372709 11.069750392947471 5.08
    vertex 65.7469333169994 55.61603294332222 2.54
    vertex 65.7469333169994 55.61603294332222 5.08
  endloop
endfacet
facet normal -1.0 -1.2660838665309345e-16 0.0
  outer loop
    vertex 108.40897566372709 100.16231549369702 5.08
    vertex 108.40897566372709 11.069750392947471 2.54
    vertex 108.40897566372709 11.069750392947471 5.08
  endloop
endfacet
facet normal -1.0 -1.2660838665309345e-16 0.0
  outer loop
    vertex 108.40897566372709 11.069750392947471 2.54
    vertex 108.40897566372709 100.16231549369702 5.08
    vertex 108.40897566372709 100.16231549369702 2.54
  endloop
endfacet
facet normal 1.0 0.0 0.0
  outer loop
    vertex 113.48897566372706 106.91133294332225 2.54
    vertex 113.48897566372706 103.35533294332224 5.08
    vertex 113.48897566372706 103.35533294332224 2.54
  endloop
endfacet
facet normal 1.0 0.0 0.0
  outer loop
    vertex 113.48897566372706 103.35533294332224 5.08
    vertex 113.48897566372706 106.91133294332225 2.54
    vertex 113.48897566372706 106.91133294332225 5.08
  endloop
endfacet
facet normal 5.828670879282059e-16 -1.0 9.574935803061512e-33
  outer loop
    vertex 124.41097566372706 7.876732943322292 15.240000000000002
    vertex 118.56897566372704 7.876732943322292 8.966199999999999
    vertex 124.41097566372706 7.876732943322292 8.966199999999999
  endloop
endfacet
facet normal 5.828670879282059e-16 -1.0 9.574935803061512e-33
  outer loop
    vertex 118.56897566372704 7.876732943322292 8.966199999999999
    vertex 113.48897566372706 7.876732943322288 2.54
    vertex 118.56897566372704 7.876732943322292 2.54
  endloop
endfacet
facet normal 5.828670879282059e-16 -1.0 9.574935803061512e-33
  outer loop
    vertex 113.48897566372706 7.876732943322288 2.54
    vertex 118.56897566372704 7.876732943322292 8.966199999999999
    vertex 113.48897566372706 7.876732943322288 5.08
  endloop
endfacet
facet normal 5.828670879282059e-16 -1.0 9.574935803061512e-33
  outer loop
    vertex 113.48897566372706 7.876732943322288 5.08
    vertex 118.56897566372704 7.876732943322292 8.966199999999999
    vertex 113.48897566372706 7.876732943322288 15.240000000000002
  endloop
endfacet
facet normal 5.828670879282059e-16 -1.0 9.574935803061512e-33
  outer loop
    vertex 113.48897566372706 7.876732943322288 15.240000000000002
    vertex 118.56897566372704 7.876732943322292 8.966199999999999
    vertex 124.41097566372706 7.876732943322292 15.240000000000002
  endloop
endfacet
facet normal 2.914335439641031e-16 -1.0 0.0
  outer loop
    vertex 11.888975663727049 7.876732943322292 5.08
    vertex 6.808975663727045 7.876732943322288 2.54
    vertex 11.888975663727049 7.876732943322292 2.54
  endloop
endfacet
facet normal 2.914335439641031e-16 -1.0 0.0
  outer loop
    vertex 6.808975663727045 7.876732943322288 2.54
    vertex 11.888975663727049 7.876732943322292 5.08
    vertex 6.808975663727045 7.876732943322292 8.966199999999999
  endloop
endfacet
facet normal 2.914335439641031e-16 -1.0 0.0
  outer loop
    vertex 6.808975663727045 7.876732943322292 8.966199999999999
    vertex 11.888975663727049 7.876732943322292 5.08
    vertex 11.888975663727049 7.876732943322292 15.240000000000002
  endloop
endfacet
facet normal 2.914335439641031e-16 -1.0 0.0
  outer loop
    vertex 6.808975663727045 7.876732943322292 8.966199999999999
    vertex 11.888975663727049 7.876732943322292 15.240000000000002
    vertex 0.966975663727057 7.876732943322292 8.966199999999999
  endloop
endfacet
facet normal 2.914335439641031e-16 -1.0 0.0
  outer loop
    vertex 0.966975663727057 7.876732943322292 8.966199999999999
    vertex 11.888975663727049 7.876732943322292 15.240000000000002
    vertex 0.966975663727057 7.876732943322288 15.240000000000002
  endloop
endfacet
facet normal 1.0 0.0 0.0
  outer loop
    vertex 124.41097566372706 103.35533294332224 8.966199999999999
    vertex 124.41097566372706 7.876732943322292 15.240000000000002
    vertex 124.41097566372706 7.876732943322292 8.966199999999999
  endloop
endfacet
facet normal 1.0 0.0 0.0
  outer loop
    vertex 124.41097566372706 7.876732943322292 15.240000000000002
    vertex 124.41097566372706 103.35533294332224 8.966199999999999
    vertex 124.41097566372706 103.35533294332224 15.240000000000002
  endloop
endfacet
facet normal 0.7222161136591265 -0.6916674671915021 0.0
  outer loop
    vertex 108.40897566372709 100.16231549369702 2.54
    vertex 65.7469333169994 55.61603294332222 5.08
    vertex 65.7469333169994 55.61603294332222 2.54
  endloop
endfacet
facet normal 0.7222161136591265 -0.6916674671915021 0.0
  outer loop
    vertex 65.7469333169994 55.61603294332222 5.08
    vertex 108.40897566372709 100.16231549369702 2.54
    vertex 108.40897566372709 100.16231549369702 5.08
  endloop
endfacet
facet normal -1.0 0.0 0.0
  outer loop
    vertex 113.48897566372706 103.35533294332224 15.240000000000002
    vertex 113.48897566372706 7.876732943322288 5.08
    vertex 113.48897566372706 7.876732943322288 15.240000000000002
  endloop
endfacet
facet normal -1.0 0.0 0.0
  outer loop
    vertex 113.48897566372706 7.876732943322288 5.08
    vertex 113.48897566372706 103.35533294332224 15.240000000000002
    vertex 113.48897566372706 103.35533294332224 5.08
  endloop
endfacet
facet normal 0.0 1.0 0.0
  outer loop
    vertex 0.966975663727057 103.35533294332224 15.240000000000002
    vertex 6.808975663727045 103.35533294332224 8.966199999999999
    vertex 0.966975663727057 103.35533294332224 8.966199999999999
  endloop
endfacet
facet normal 0.0 1.0 0.0
  outer loop
    vertex 6.808975663727045 103.35533294332224 8.966199999999999
    vertex 11.888975663727049 103.35533294332224 2.54
    vertex 6.808975663727045 103.35533294332224 2.54
  endloop
endfacet
facet normal 0.0 1.0 0.0
  outer loop
    vertex 11.888975663727049 103.35533294332224 2.54
    vertex 6.808975663727045 103.35533294332224 8.966199999999999
    vertex 11.888975663727049 103.35533294332224 5.08
  endloop
endfacet
facet normal 0.0 1.0 0.0
  outer loop
    vertex 11.888975663727049 103.35533294332224 5.08
    vertex 6.808975663727045 103.35533294332224 8.966199999999999
    vertex 11.888975663727049 103.35533294332224 15.240000000000002
  endloop
endfacet
facet normal 0.0 1.0 0.0
  outer loop
    vertex 11.888975663727049 103.35533294332224 15.240000000000002
    vertex 6.808975663727045 103.35533294332224 8.966199999999999
    vertex 0.966975663727057 103.35533294332224 15.240000000000002
  endloop
endfacet
facet normal 4.627008997226169e-17 1.0 0.0
  outer loop
    vertex 20.026933316999386 7.8767329433222875 5.08
    vertex 105.35101801045471 7.876732943322282 2.54
    vertex 20.026933316999386 7.8767329433222875 2.54
  endloop
endfacet
facet normal 4.627008997226169e-17 1.0 0.0
  outer loop
    vertex 105.35101801045471 7.876732943322282 2.54
    vertex 20.026933316999386 7.8767329433222875 5.08
    vertex 105.35101801045471 7.876732943322282 5.08
  endloop
endfacet
facet normal 0.0 -1.0 0.0
  outer loop
    vertex 105.35101801045471 103.35533294332224 5.08
    vertex 20.02693331699941 103.35533294332224 2.54
    vertex 105.35101801045471 103.35533294332224 2.54
  endloop
endfacet
facet normal 0.0 -1.0 0.0
  outer loop
    vertex 20.02693331699941 103.35533294332224 2.54
    vertex 105.35101801045471 103.35533294332224 5.08
    vertex 20.02693331699941 103.35533294332224 5.08
  endloop
endfacet
facet normal -1.0 0.0 0.0
  outer loop
    vertex 11.888975663727049 7.876732943322292 5.08
    vertex 11.888975663727049 4.32073294332229 2.54
    vertex 11.888975663727049 4.32073294332229 5.08
  endloop
endfacet
facet normal -1.0 0.0 0.0
  outer loop
    vertex 11.888975663727049 4.32073294332229 2.54
    vertex 11.888975663727049 7.876732943322292 5.08
    vertex 11.888975663727049 7.876732943322292 2.54
  endloop
endfacet
facet normal 0.7222161136591264 -0.6916674671915023 0.0
  outer loop
    vertex 62.68897566372707 52.42301549369704 2.54
    vertex 20.026933316999386 7.8767329433222875 5.08
    vertex 20.026933316999386 7.8767329433222875 2.54
  endloop
endfacet
facet normal 0.7222161136591264 -0.6916674671915023 0.0
  outer loop
    vertex 20.026933316999386 7.8767329433222875 5.08
    vertex 62.68897566372707 52.42301549369704 2.54
    vertex 62.68897566372707 52.42301549369704 5.08
  endloop
endfacet
facet normal 0.0 0.0 1.0
  outer loop
    vertex 124.41097566372706 7.876732943322292 15.240000000000002
    vertex 113.48897566372706 103.35533294332224 15.240000000000002
    vertex 113.48897566372706 7.876732943322288 15.240000000000002
  endloop
endfacet
facet normal 0.0 0.0 1.0
  outer loop
    vertex 113.48897566372706 103.35533294332224 15.240000000000002
    vertex 124.41097566372706 7.876732943322292 15.240000000000002
    vertex 124.41097566372706 103.35533294332224 15.240000000000002
  endloop
endfacet
facet normal -0.7222161136591264 -0.6916674671915023 0.0
  outer loop
    vertex 62.68897566372707 52.42301549369704 5.08
    vertex 105.35101801045471 7.876732943322282 2.54
    vertex 105.35101801045471 7.876732943322282 5.08
  endloop
endfacet
facet normal -0.7222161136591264 -0.6916674671915023 0.0
  outer loop
    vertex 105.35101801045471 7.876732943322282 2.54
    vertex 62.68897566372707 52.42301549369704 5.08
    vertex 62.68897566372707 52.42301549369704 2.54
  endloop
endfacet
facet normal -0.7222161136591265 0.6916674671915021 0.0
  outer loop
    vertex 105.35101801045471 103.35533294332224 5.08
    vertex 62.68897566372707 58.8090503929475 2.54
    vertex 62.68897566372707 58.8090503929475 5.08
  endloop
endfacet
facet normal -0.7222161136591265 0.6916674671915021 0.0
  outer loop
    vertex 62.68897566372707 58.8090503929475 2.54
    vertex 105.35101801045471 103.35533294332224 5.08
    vertex 105.35101801045471 103.35533294332224 2.54
  endloop
endfacet
facet normal 0.0 0.0 -1.0
  outer loop
    vertex 124.41097566372706 103.35533294332224 8.966199999999999
    vertex 118.56897566372704 7.876732943322292 8.966199999999999
    vertex 118.56897566372704 103.35533294332224 8.966199999999999
  endloop
endfacet
facet normal 0.0 0.0 -1.0
  outer loop
    vertex 118.56897566372704 7.876732943322292 8.966199999999999
    vertex 124.41097566372706 103.35533294332224 8.966199999999999
    vertex 124.41097566372706 7.876732943322292 8.966199999999999
  endloop
endfacet
facet normal 0.7222161136591265 0.6916674671915022 0.0
  outer loop
    vertex 20.02693331699941 103.35533294332224 2.54
    vertex 62.68897566372707 58.8090503929475 5.08
    vertex 62.68897566372707 58.8090503929475 2.54
  endloop
endfacet
facet normal 0.7222161136591265 0.6916674671915022 0.0
  outer loop
    vertex 62.68897566372707 58.8090503929475 5.08
    vertex 20.02693331699941 103.35533294332224 2.54
    vertex 20.02693331699941 103.35533294332224 5.08
  endloop
endfacet
facet normal 0.0 0.0 1.0
  outer loop
    vertex 20.026933316999386 7.8767329433222875 5.08
    vertex 59.63101801045469 55.61603294332222 5.08
    vertex 16.968975663727054 11.069750392947476 5.08
  endloop
endfacet
facet normal 0.0 0.0 1.0
  outer loop
    vertex 59.63101801045469 55.61603294332222 5.08
    vertex 20.026933316999386 7.8767329433222875 5.08
    vertex 62.68897566372707 52.42301549369704 5.08
  endloop
endfacet
facet normal 0.0 0.0 1.0
  outer loop
    vertex 65.7469333169994 55.61603294332222 5.08
    vertex 105.35101801045471 103.35533294332224 5.08
    vertex 62.68897566372707 58.8090503929475 5.08
  endloop
endfacet
facet normal 0.0 0.0 1.0
  outer loop
    vertex 105.35101801045471 103.35533294332224 5.08
    vertex 65.7469333169994 55.61603294332222 5.08
    vertex 108.40897566372709 100.16231549369702 5.08
  endloop
endfacet
facet normal 0.0 0.0 1.0
  outer loop
    vertex 113.48897566372706 4.32073294332229 5.08
    vertex 11.888975663727049 7.876732943322292 5.08
    vertex 11.888975663727049 4.32073294332229 5.08
  endloop
endfacet
facet normal 0.0 0.0 1.0
  outer loop
    vertex 11.888975663727049 7.876732943322292 5.08
    vertex 113.48897566372706 4.32073294332229 5.08
    vertex 20.026933316999386 7.8767329433222875 5.08
  endloop
endfacet
facet normal 0.0 0.0 1.0
  outer loop
    vertex 11.888975663727049 7.876732943322292 5.08
    vertex 20.026933316999386 7.8767329433222875 5.08
    vertex 16.968975663727054 11.069750392947476 5.08
  endloop
endfacet
facet normal 0.0 0.0 1.0
  outer loop
    vertex 11.888975663727049 7.876732943322292 5.08
    vertex 16.968975663727054 11.069750392947476 5.08
    vertex 11.888975663727049 103.35533294332224 5.08
  endloop
endfacet
facet normal 0.0 0.0 1.0
  outer loop
    vertex 11.888975663727049 103.35533294332224 5.08
    vertex 16.968975663727054 11.069750392947476 5.08
    vertex 11.888975663727049 106.91133294332225 5.08
  endloop
endfacet
facet normal 0.0 0.0 1.0
  outer loop
    vertex 20.026933316999386 7.8767329433222875 5.08
    vertex 113.48897566372706 4.32073294332229 5.08
    vertex 105.35101801045471 7.876732943322282 5.08
  endloop
endfacet
facet normal 0.0 0.0 1.0
  outer loop
    vertex 105.35101801045471 7.876732943322282 5.08
    vertex 113.48897566372706 4.32073294332229 5.08
    vertex 108.40897566372709 11.069750392947471 5.08
  endloop
endfacet
facet normal 0.0 0.0 1.0
  outer loop
    vertex 108.40897566372709 11.069750392947471 5.08
    vertex 113.48897566372706 4.32073294332229 5.08
    vertex 108.40897566372709 100.16231549369702 5.08
  endloop
endfacet
facet normal 0.0 0.0 1.0
  outer loop
    vertex 11.888975663727049 106.91133294332225 5.08
    vertex 20.02693331699941 103.35533294332224 5.08
    vertex 113.48897566372706 106.91133294332225 5.08
  endloop
endfacet
facet normal 0.0 0.0 1.0
  outer loop
    vertex 20.02693331699941 103.35533294332224 5.08
    vertex 11.888975663727049 106.91133294332225 5.08
    vertex 16.968975663727054 100.16231549369702 5.08
  endloop
endfacet
facet normal 0.0 0.0 1.0
  outer loop
    vertex 16.968975663727054 100.16231549369702 5.08
    vertex 11.888975663727049 106.91133294332225 5.08
    vertex 16.968975663727054 11.069750392947476 5.08
  endloop
endfacet
facet normal 0.0 0.0 1.0
  outer loop
    vertex 113.48897566372706 106.91133294332225 5.08
    vertex 20.02693331699941 103.35533294332224 5.08
    vertex 105.35101801045471 103.35533294332224 5.08
  endloop
endfacet
facet normal 0.0 0.0 1.0
  outer loop
    vertex 113.48897566372706 106.91133294332225 5.08
    vertex 105.35101801045471 103.35533294332224 5.08
    vertex 108.40897566372709 100.16231549369702 5.08
  endloop
endfacet
facet normal 0.0 0.0 1.0
  outer loop
    vertex 113.48897566372706 106.91133294332225 5.08
    vertex 108.40897566372709 100.16231549369702 5.08
    vertex 113.48897566372706 4.32073294332229 5.08
  endloop
endfacet
facet normal 0.0 0.0 1.0
  outer loop
    vertex 113.48897566372706 106.91133294332225 5.08
    vertex 113.48897566372706 4.32073294332229 5.08
    vertex 113.48897566372706 7.876732943322288 5.08
  endloop
endfacet
facet normal 0.0 0.0 1.0
  outer loop
    vertex 113.48897566372706 106.91133294332225 5.08
    vertex 113.48897566372706 7.876732943322288 5.08
    vertex 113.48897566372706 103.35533294332224 5.08
  endloop
endfacet
facet normal 0.0 0.0 1.0
  outer loop
    vertex 59.63101801045469 55.61603294332222 5.08
    vertex 20.02693331699941 103.35533294332224 5.08
    vertex 16.968975663727054 100.16231549369702 5.08
  endloop
endfacet
facet normal 0.0 0.0 1.0
  outer loop
    vertex 20.02693331699941 103.35533294332224 5.08
    vertex 59.63101801045469 55.61603294332222 5.08
    vertex 62.68897566372707 58.8090503929475 5.08
  endloop
endfacet
facet normal 0.0 0.0 1.0
  outer loop
    vertex 62.68897566372707 58.8090503929475 5.08
    vertex 59.63101801045469 55.61603294332222 5.08
    vertex 62.68897566372707 52.42301549369704 5.08
  endloop
endfacet
facet normal 0.0 0.0 1.0
  outer loop
    vertex 62.68897566372707 58.8090503929475 5.08
    vertex 62.68897566372707 52.42301549369704 5.08
    vertex 105.35101801045471 7.876732943322282 5.08
  endloop
endfacet
facet normal 0.0 0.0 1.0
  outer loop
    vertex 62.68897566372707 58.8090503929475 5.08
    vertex 105.35101801045471 7.876732943322282 5.08
    vertex 65.7469333169994 55.61603294332222 5.08
  endloop
endfacet
facet normal 0.0 0.0 1.0
  outer loop
    vertex 65.7469333169994 55.61603294332222 5.08
    vertex 105.35101801045471 7.876732943322282 5.08
    vertex 108.40897566372709 11.069750392947471 5.08
  endloop
endfacet
facet normal -0.7222161136591266 0.691667467191502 0.0
  outer loop
    vertex 59.63101801045469 55.61603294332222 5.08
    vertex 16.968975663727054 11.069750392947476 2.54
    vertex 16.968975663727054 11.069750392947476 5.08
  endloop
endfacet
facet normal -0.7222161136591266 0.691667467191502 0.0
  outer loop
    vertex 16.968975663727054 11.069750392947476 2.54
    vertex 59.63101801045469 55.61603294332222 5.08
    vertex 59.63101801045469 55.61603294332222 2.54
  endloop
endfacet
facet normal -0.7222161136591265 -0.6916674671915021 0.0
  outer loop
    vertex 16.968975663727054 100.16231549369702 5.08
    vertex 59.63101801045469 55.61603294332222 2.54
    vertex 59.63101801045469 55.61603294332222 5.08
  endloop
endfacet
facet normal -0.7222161136591265 -0.6916674671915021 0.0
  outer loop
    vertex 59.63101801045469 55.61603294332222 2.54
    vertex 16.968975663727054 100.16231549369702 5.08
    vertex 16.968975663727054 100.16231549369702 2.54
  endloop
endfacet
facet normal -1.0 0.0 0.0
  outer loop
    vertex 0.966975663727057 103.35533294332224 15.240000000000002
    vertex 0.966975663727057 7.876732943322292 8.966199999999999
    vertex 0.966975663727057 7.876732943322288 15.240000000000002
  endloop
endfacet
facet normal -1.0 0.0 0.0
  outer loop
    vertex 0.966975663727057 7.876732943322292 8.966199999999999
    vertex 0.966975663727057 103.35533294332224 15.240000000000002
    vertex 0.966975663727057 103.35533294332224 8.966199999999999
  endloop
endfacet
facet normal 1.0 0.0 0.0
  outer loop
    vertex 113.48897566372706 7.876732943322288 2.54
    vertex 113.48897566372706 4.32073294332229 5.08
    vertex 113.48897566372706 4.32073294332229 2.54
  endloop
endfacet
facet normal 1.0 0.0 0.0
  outer loop
    vertex 113.48897566372706 4.32073294332229 5.08
    vertex 113.48897566372706 7.876732943322288 2.54
    vertex 113.48897566372706 7.876732943322288 5.08
  endloop
endfacet
facet normal -1.0 0.0 0.0
  outer loop
    vertex 11.888975663727049 106.91133294332225 5.08
    vertex 11.888975663727049 103.35533294332224 2.54
    vertex 11.888975663727049 103.35533294332224 5.08
  endloop
endfacet
facet normal -1.0 0.0 0.0
  outer loop
    vertex 11.888975663727049 103.35533294332224 2.54
    vertex 11.888975663727049 106.91133294332225 5.08
    vertex 11.888975663727049 106.91133294332225 2.54
  endloop
endfacet
endsolid Dell 2950 HD Caddy
