solid Printer Feet
facet normal 1.0 0.0 1.2259466790569165e-16
  outer loop
    vertex 57.14999999999998 7.1120000000000285 -1.269999999999991
    vertex 57.14999999999998 3.048000000000029 2.5400000000000076
    vertex 57.14999999999998 3.048000000000029 -1.269999999999991
  endloop
endfacet
facet normal 1.0 0.0 1.2259466790569165e-16
  outer loop
    vertex 57.14999999999998 3.048000000000029 2.5400000000000076
    vertex 57.14999999999998 7.1120000000000285 -1.269999999999991
    vertex 57.14999999999998 7.1120000000000285 2.5400000000000076
  endloop
endfacet
facet normal 1.0 0.0 1.2259466790569165e-16
  outer loop
    vertex 4.670856847206851e-16 7.1120000000000285 -1.2699999999999976
    vertex 0.0 3.048000000000029 2.5400000000000023
    vertex 4.670856847206851e-16 3.048000000000029 -1.2699999999999976
  endloop
endfacet
facet normal 1.0 0.0 1.2259466790569165e-16
  outer loop
    vertex 0.0 3.048000000000029 2.5400000000000023
    vertex 4.670856847206851e-16 7.1120000000000285 -1.2699999999999976
    vertex 0.0 7.1120000000000285 2.5400000000000023
  endloop
endfacet
facet normal 0.0 1.0 0.0
  outer loop
    vertex 0.0 7.1120000000000285 2.5400000000000023
    vertex 57.14999999999998 7.1120000000000285 -1.269999999999991
    vertex 4.670856847206851e-16 7.1120000000000285 -1.2699999999999976
  endloop
endfacet
facet normal 0.0 1.0 0.0
  outer loop
    vertex 57.14999999999998 7.1120000000000285 -1.269999999999991
    vertex 0.0 7.1120000000000285 2.5400000000000023
    vertex 57.14999999999998 7.1120000000000285 2.5400000000000076
  endloop
endfacet
facet normal 0.0 -1.0 0.0
  outer loop
    vertex 57.14999999999998 3.048000000000029 -1.269999999999991
    vertex 0.0 3.048000000000029 2.5400000000000023
    vertex 4.670856847206851e-16 3.048000000000029 -1.2699999999999976
  endloop
endfacet
facet normal 0.0 -1.0 0.0
  outer loop
    vertex 0.0 3.048000000000029 2.5400000000000023
    vertex 57.14999999999998 3.048000000000029 -1.269999999999991
    vertex 57.14999999999998 3.048000000000029 2.5400000000000076
  endloop
endfacet
facet normal -1.2259466790569167e-16 0.0 1.0
  outer loop
    vertex 57.14999999999998 3.048000000000029 2.5400000000000076
    vertex 0.0 7.1120000000000285 2.5400000000000023
    vertex 0.0 3.048000000000029 2.5400000000000023
  endloop
endfacet
facet normal -1.2259466790569167e-16 0.0 1.0
  outer loop
    vertex 0.0 7.1120000000000285 2.5400000000000023
    vertex 57.14999999999998 3.048000000000029 2.5400000000000076
    vertex 57.14999999999998 7.1120000000000285 2.5400000000000076
  endloop
endfacet
facet normal 1.2259466790569167e-16 0.0 -1.0
  outer loop
    vertex 57.14999999999998 7.1120000000000285 -1.269999999999991
    vertex 4.670856847206851e-16 3.048000000000029 -1.2699999999999976
    vertex 4.670856847206851e-16 7.1120000000000285 -1.2699999999999976
  endloop
endfacet
facet normal 1.2259466790569167e-16 0.0 -1.0
  outer loop
    vertex 4.670856847206851e-16 3.048000000000029 -1.2699999999999976
    vertex 57.14999999999998 7.1120000000000285 -1.269999999999991
    vertex 57.14999999999998 3.048000000000029 -1.269999999999991
  endloop
endfacet
endsolid Printer Feet
